NotoSansDeseret-Regular.ufo
<glyph name="uni10400" format="2">
  <advance width="614"/>
  <unicode hex="10400"/>
  <note>
uni10400
</note>
  <outline>
    <contour>
      <point x="453" y="377" type="line"/>
      <point x="420" y="443"/>
      <point x="354" y="481"/>
      <point x="266" y="481" type="curve" smooth="yes"/>
      <point x="137" y="481"/>
      <point x="52" y="386"/>
      <point x="52" y="247" type="curve" smooth="yes"/>
      <point x="52" y="104"/>
      <point x="150" y="-10"/>
      <point x="290" y="-10" type="curve" smooth="yes"/>
      <point x="462" y="-10"/>
      <point x="553" y="116"/>
      <point x="553" y="358" type="curve" smooth="yes"/>
      <point x="553" y="586"/>
      <point x="440" y="724"/>
      <point x="254" y="724" type="curve" smooth="yes"/>
      <point x="188" y="724"/>
      <point x="129" y="710"/>
      <point x="80" y="682" type="curve"/>
      <point x="111" y="606" type="line"/>
      <point x="149" y="626"/>
      <point x="195" y="645"/>
      <point x="250" y="645" type="curve" smooth="yes"/>
      <point x="382" y="645"/>
      <point x="459" y="548"/>
      <point x="459" y="377" type="curve"/>
    </contour>
    <contour>
      <point x="291" y="66" type="curve" smooth="yes"/>
      <point x="205" y="66"/>
      <point x="143" y="137"/>
      <point x="143" y="239" type="curve" smooth="yes"/>
      <point x="143" y="345"/>
      <point x="195" y="405"/>
      <point x="288" y="405" type="curve" smooth="yes"/>
      <point x="378" y="405"/>
      <point x="450" y="335"/>
      <point x="450" y="253" type="curve" smooth="yes"/>
      <point x="450" y="158"/>
      <point x="390" y="66"/>
    </contour>
  </outline>
</glyph>
<glyph name="uni10401" format="2">
  <advance width="556"/>
  <unicode hex="10401"/>
  <note>
uni10401
</note>
  <outline>
    <contour>
      <point x="82" y="536" type="curve" smooth="yes"/>
      <point x="82" y="448"/>
      <point x="134" y="389"/>
      <point x="234" y="372" type="curve"/>
      <point x="234" y="368" type="line"/>
      <point x="121" y="352"/>
      <point x="56" y="285"/>
      <point x="56" y="189" type="curve" smooth="yes"/>
      <point x="56" y="63"/>
      <point x="146" y="-10"/>
      <point x="307" y="-10" type="curve" smooth="yes"/>
      <point x="392" y="-10"/>
      <point x="461" y="4"/>
      <point x="515" y="31" type="curve"/>
      <point x="515" y="107" type="line"/>
      <point x="453" y="78"/>
      <point x="387" y="64"/>
      <point x="317" y="64" type="curve" smooth="yes"/>
      <point x="207" y="64"/>
      <point x="150" y="112"/>
      <point x="150" y="192" type="curve" smooth="yes"/>
      <point x="150" y="284"/>
      <point x="226" y="332"/>
      <point x="368" y="332" type="curve" smooth="yes"/>
      <point x="416" y="332" type="line"/>
      <point x="416" y="407" type="line"/>
      <point x="373" y="407" type="line" smooth="yes"/>
      <point x="238" y="407"/>
      <point x="175" y="446"/>
      <point x="175" y="532" type="curve" smooth="yes"/>
      <point x="175" y="604"/>
      <point x="230" y="650"/>
      <point x="325" y="650" type="curve" smooth="yes"/>
      <point x="383" y="650"/>
      <point x="438" y="633"/>
      <point x="490" y="599" type="curve"/>
      <point x="530" y="665" type="line"/>
      <point x="474" y="705"/>
      <point x="406" y="724"/>
      <point x="325" y="724" type="curve" smooth="yes"/>
      <point x="173" y="724"/>
      <point x="82" y="651"/>
    </contour>
  </outline>
</glyph>
<glyph name="uni10402" format="2">
  <advance width="646"/>
  <unicode hex="10402"/>
  <note>
uni10402
</note>
  <outline>
    <contour>
      <point x="312" y="724" type="curve" smooth="yes"/>
      <point x="171" y="724"/>
      <point x="82" y="651"/>
      <point x="82" y="536" type="curve" smooth="yes"/>
      <point x="82" y="448"/>
      <point x="134" y="389"/>
      <point x="234" y="372" type="curve"/>
      <point x="234" y="368" type="line"/>
      <point x="121" y="352"/>
      <point x="56" y="285"/>
      <point x="56" y="189" type="curve" smooth="yes"/>
      <point x="56" y="66"/>
      <point x="144" y="-10"/>
      <point x="291" y="-10" type="curve" smooth="yes"/>
      <point x="478" y="-10"/>
      <point x="585" y="125"/>
      <point x="585" y="358" type="curve" smooth="yes"/>
      <point x="585" y="600"/>
      <point x="492" y="724"/>
    </contour>
    <contour>
      <point x="310" y="647" type="curve" smooth="yes"/>
      <point x="432" y="647"/>
      <point x="490" y="551"/>
      <point x="490" y="358" type="curve" smooth="yes"/>
      <point x="490" y="163"/>
      <point x="425" y="65"/>
      <point x="295" y="65" type="curve" smooth="yes"/>
      <point x="201" y="65"/>
      <point x="150" y="112"/>
      <point x="150" y="192" type="curve" smooth="yes"/>
      <point x="150" y="284"/>
      <point x="226" y="332"/>
      <point x="368" y="332" type="curve" smooth="yes"/>
      <point x="396" y="332" type="line"/>
      <point x="396" y="407" type="line"/>
      <point x="373" y="407" type="line" smooth="yes"/>
      <point x="238" y="407"/>
      <point x="175" y="446"/>
      <point x="175" y="532" type="curve" smooth="yes"/>
      <point x="175" y="605"/>
      <point x="223" y="647"/>
    </contour>
  </outline>
</glyph>
<glyph name="uni10403" format="2">
  <advance width="691"/>
  <unicode hex="10403"/>
  <note>
uni10403
</note>
  <outline>
    <contour>
      <point x="630" y="358" type="curve" smooth="yes"/>
      <point x="630" y="588"/>
      <point x="526" y="725"/>
      <point x="347" y="725" type="curve" smooth="yes"/>
      <point x="164" y="725"/>
      <point x="61" y="593"/>
      <point x="61" y="359" type="curve" smooth="yes"/>
      <point x="61" y="123"/>
      <point x="165" y="-10"/>
      <point x="346" y="-10" type="curve" smooth="yes"/>
      <point x="525" y="-10"/>
      <point x="630" y="127"/>
    </contour>
    <contour>
      <point x="156" y="358" type="curve" smooth="yes"/>
      <point x="156" y="517"/>
      <point x="204" y="614"/>
      <point x="296" y="640" type="curve"/>
      <point x="283" y="600"/>
      <point x="277" y="560"/>
      <point x="277" y="520" type="curve" smooth="yes"/>
      <point x="277" y="390"/>
      <point x="352" y="311"/>
      <point x="487" y="311" type="curve" smooth="yes"/>
      <point x="504" y="311"/>
      <point x="520" y="313"/>
      <point x="534" y="315" type="curve"/>
      <point x="526" y="155"/>
      <point x="459" y="68"/>
      <point x="346" y="68" type="curve" smooth="yes"/>
      <point x="221" y="68"/>
      <point x="156" y="170"/>
    </contour>
    <contour>
      <point x="493" y="369" type="curve" smooth="yes"/>
      <point x="398" y="369"/>
      <point x="344" y="420"/>
      <point x="344" y="526" type="curve" smooth="yes"/>
      <point x="344" y="569"/>
      <point x="350" y="609"/>
      <point x="362" y="645" type="curve"/>
      <point x="474" y="637"/>
      <point x="533" y="544"/>
      <point x="535" y="372" type="curve"/>
      <point x="524" y="370"/>
      <point x="510" y="369"/>
    </contour>
  </outline>
</glyph>
<glyph name="uni10404" format="2">
  <advance width="691"/>
  <unicode hex="10404"/>
  <note>
uni10404
</note>
  <outline>
    <contour>
      <point x="630" y="358" type="curve" smooth="yes"/>
      <point x="630" y="588"/>
      <point x="526" y="725"/>
      <point x="347" y="725" type="curve" smooth="yes"/>
      <point x="164" y="725"/>
      <point x="61" y="593"/>
      <point x="61" y="359" type="curve" smooth="yes"/>
      <point x="61" y="123"/>
      <point x="165" y="-10"/>
      <point x="346" y="-10" type="curve" smooth="yes"/>
      <point x="525" y="-10"/>
      <point x="630" y="127"/>
    </contour>
    <contour>
      <point x="156" y="358" type="curve" smooth="yes"/>
      <point x="156" y="547"/>
      <point x="222" y="646"/>
      <point x="347" y="646" type="curve" smooth="yes"/>
      <point x="472" y="646"/>
      <point x="535" y="546"/>
      <point x="535" y="358" type="curve" smooth="yes"/>
      <point x="535" y="168"/>
      <point x="471" y="68"/>
      <point x="346" y="68" type="curve" smooth="yes"/>
      <point x="221" y="68"/>
      <point x="156" y="170"/>
    </contour>
  </outline>
</glyph>
<glyph name="uni10405" format="2">
  <advance width="691"/>
  <unicode hex="10405"/>
  <note>
uni10405
</note>
  <outline>
    <contour>
      <point x="630" y="358" type="curve" smooth="yes"/>
      <point x="630" y="588"/>
      <point x="526" y="725"/>
      <point x="347" y="725" type="curve" smooth="yes"/>
      <point x="164" y="725"/>
      <point x="61" y="593"/>
      <point x="61" y="359" type="curve" smooth="yes"/>
      <point x="61" y="123"/>
      <point x="165" y="-10"/>
      <point x="346" y="-10" type="curve" smooth="yes"/>
      <point x="525" y="-10"/>
      <point x="630" y="127"/>
    </contour>
    <contour>
      <point x="535" y="358" type="curve" smooth="yes"/>
      <point x="535" y="184"/>
      <point x="479" y="85"/>
      <point x="376" y="70" type="curve"/>
      <point x="376" y="644" type="line"/>
      <point x="479" y="630"/>
      <point x="535" y="532"/>
    </contour>
    <contour>
      <point x="156" y="358" type="curve" smooth="yes"/>
      <point x="156" y="530"/>
      <point x="211" y="628"/>
      <point x="315" y="643" type="curve"/>
      <point x="315" y="70" type="line"/>
      <point x="212" y="85"/>
      <point x="156" y="184"/>
    </contour>
  </outline>
</glyph>
<glyph name="uni10406" format="2">
  <advance width="508"/>
  <unicode hex="10406"/>
  <note>
uni10406
</note>
  <outline>
    <contour>
      <point x="30" y="453" type="line"/>
      <point x="209" y="348" type="line"/>
      <point x="209" y="0" type="line"/>
      <point x="299" y="0" type="line"/>
      <point x="299" y="296" type="line"/>
      <point x="432" y="219" type="line"/>
      <point x="476" y="288" type="line"/>
      <point x="299" y="391" type="line"/>
      <point x="299" y="714" type="line"/>
      <point x="209" y="714" type="line"/>
      <point x="209" y="444" type="line"/>
      <point x="76" y="523" type="line"/>
    </contour>
  </outline>
</glyph>
<glyph name="uni10407" format="2">
  <advance width="613"/>
  <unicode hex="10407"/>
  <note>
uni10407
</note>
  <outline>
    <contour>
      <point x="426" y="714" type="line"/>
      <point x="426" y="119" type="line"/>
      <point x="395" y="161"/>
      <point x="329" y="190"/>
      <point x="256" y="190" type="curve" smooth="yes"/>
      <point x="132" y="190"/>
      <point x="42" y="123"/>
      <point x="10" y="11" type="curve"/>
      <point x="98" y="-17" type="line"/>
      <point x="124" y="63"/>
      <point x="179" y="104"/>
      <point x="262" y="104" type="curve" smooth="yes"/>
      <point x="338" y="104"/>
      <point x="400" y="63"/>
      <point x="426" y="0" type="curve"/>
      <point x="516" y="0" type="line"/>
      <point x="516" y="714" type="line"/>
    </contour>
  </outline>
</glyph>
<glyph name="uni10408" format="2">
  <advance width="574"/>
  <unicode hex="10408"/>
  <note>
uni10408
</note>
  <outline>
    <contour>
      <point x="476" y="714" type="line"/>
      <point x="383" y="714" type="line"/>
      <point x="383" y="103" type="line"/>
      <point x="73" y="261" type="line"/>
      <point x="27" y="183" type="line"/>
      <point x="385" y="0" type="line"/>
      <point x="476" y="0" type="line"/>
    </contour>
  </outline>
</glyph>
<glyph name="uni10409" format="2">
  <advance width="731"/>
  <unicode hex="10409"/>
  <note>
uni10409
</note>
  <outline>
    <contour>
      <point x="633" y="714" type="line"/>
      <point x="540" y="714" type="line"/>
      <point x="540" y="124" type="line"/>
      <point x="414" y="250" type="line"/>
      <point x="354" y="250" type="line"/>
      <point x="254" y="99" type="line"/>
      <point x="92" y="257" type="line"/>
      <point x="27" y="191" type="line"/>
      <point x="226" y="0" type="line"/>
      <point x="292" y="0" type="line"/>
      <point x="388" y="153" type="line"/>
      <point x="542" y="0" type="line"/>
      <point x="633" y="0" type="line"/>
    </contour>
  </outline>
</glyph>
<glyph name="uni1040A" format="2">
  <advance width="613"/>
  <unicode hex="1040A"/>
  <note>
uni1040A
</note>
  <outline>
    <contour>
      <point x="187" y="-17" type="line"/>
      <point x="187" y="578" type="line"/>
      <point x="219" y="536"/>
      <point x="285" y="507"/>
      <point x="357" y="507" type="curve" smooth="yes"/>
      <point x="479" y="507"/>
      <point x="571" y="574"/>
      <point x="603" y="686" type="curve"/>
      <point x="515" y="714" type="line"/>
      <point x="489" y="633"/>
      <point x="435" y="593"/>
      <point x="351" y="593" type="curve" smooth="yes"/>
      <point x="276" y="593"/>
      <point x="213" y="633"/>
      <point x="187" y="697" type="curve"/>
      <point x="97" y="697" type="line"/>
      <point x="97" y="-17" type="line"/>
    </contour>
  </outline>
</glyph>
<glyph name="uni1040B" format="2">
  <advance width="605"/>
  <unicode hex="1040B"/>
  <note>
uni1040B
</note>
  <outline>
    <contour>
      <point x="51" y="512" type="curve" smooth="yes"/>
      <point x="51" y="360"/>
      <point x="151" y="278"/>
      <point x="336" y="278" type="curve" smooth="yes"/>
      <point x="418" y="278" type="line"/>
      <point x="418" y="0" type="line"/>
      <point x="508" y="0" type="line"/>
      <point x="508" y="472" type="line" smooth="yes"/>
      <point x="508" y="636"/>
      <point x="426" y="725"/>
      <point x="268" y="725" type="curve" smooth="yes"/>
      <point x="135" y="725"/>
      <point x="51" y="640"/>
    </contour>
    <contour>
      <point x="418" y="355" type="line"/>
      <point x="346" y="355" type="line" smooth="yes"/>
      <point x="203" y="355"/>
      <point x="144" y="400"/>
      <point x="144" y="508" type="curve" smooth="yes"/>
      <point x="144" y="595"/>
      <point x="194" y="648"/>
      <point x="274" y="648" type="curve" smooth="yes"/>
      <point x="368" y="648"/>
      <point x="418" y="591"/>
      <point x="418" y="464" type="curve" smooth="yes"/>
    </contour>
  </outline>
</glyph>
<glyph name="uni1040C" format="2">
  <advance width="688"/>
  <unicode hex="1040C"/>
  <note>
uni1040C
</note>
  <outline>
    <contour>
      <point x="50" y="164" type="curve" smooth="yes"/>
      <point x="50" y="55"/>
      <point x="114" y="-11"/>
      <point x="222" y="-11" type="curve" smooth="yes"/>
      <point x="334" y="-11"/>
      <point x="401" y="62"/>
      <point x="401" y="188" type="curve" smooth="yes"/>
      <point x="401" y="295" type="line"/>
      <point x="496" y="281"/>
      <point x="544" y="239"/>
      <point x="544" y="169" type="curve" smooth="yes"/>
      <point x="544" y="120"/>
      <point x="521" y="83"/>
      <point x="474" y="58" type="curve"/>
      <point x="511" y="-10" type="line"/>
      <point x="593" y="26"/>
      <point x="638" y="93"/>
      <point x="638" y="177" type="curve" smooth="yes"/>
      <point x="638" y="290"/>
      <point x="552" y="363"/>
      <point x="401" y="375" type="curve"/>
      <point x="401" y="714" type="line"/>
      <point x="311" y="714" type="line"/>
      <point x="311" y="376" type="line"/>
      <point x="146" y="366"/>
      <point x="50" y="286"/>
    </contour>
    <contour>
      <point x="311" y="179" type="line" smooth="yes"/>
      <point x="311" y="106"/>
      <point x="278" y="66"/>
      <point x="226" y="66" type="curve" smooth="yes"/>
      <point x="177" y="66"/>
      <point x="143" y="104"/>
      <point x="143" y="164" type="curve" smooth="yes"/>
      <point x="143" y="246"/>
      <point x="199" y="291"/>
      <point x="311" y="299" type="curve"/>
    </contour>
  </outline>
</glyph>
<glyph name="uni1040D" format="2">
  <advance width="646"/>
  <unicode hex="1040D"/>
  <note>
uni1040D
</note>
  <outline>
    <contour>
      <point x="312" y="724" type="curve" smooth="yes"/>
      <point x="171" y="724"/>
      <point x="82" y="651"/>
      <point x="82" y="536" type="curve" smooth="yes"/>
      <point x="82" y="448"/>
      <point x="134" y="389"/>
      <point x="234" y="372" type="curve"/>
      <point x="234" y="368" type="line"/>
      <point x="121" y="352"/>
      <point x="56" y="285"/>
      <point x="56" y="189" type="curve" smooth="yes"/>
      <point x="56" y="66"/>
      <point x="144" y="-10"/>
      <point x="291" y="-10" type="curve" smooth="yes"/>
      <point x="478" y="-10"/>
      <point x="585" y="125"/>
      <point x="585" y="358" type="curve" smooth="yes"/>
      <point x="585" y="600"/>
      <point x="492" y="724"/>
    </contour>
    <contour>
      <point x="295" y="65" type="curve" smooth="yes"/>
      <point x="201" y="65"/>
      <point x="150" y="112"/>
      <point x="150" y="192" type="curve" smooth="yes"/>
      <point x="150" y="284"/>
      <point x="226" y="332"/>
      <point x="368" y="332" type="curve" smooth="yes"/>
      <point x="489" y="332" type="line"/>
      <point x="483" y="154"/>
      <point x="418" y="65"/>
    </contour>
    <contour>
      <point x="410" y="407" type="line"/>
      <point x="368" y="439"/>
      <point x="343" y="490"/>
      <point x="343" y="546" type="curve" smooth="yes"/>
      <point x="343" y="575"/>
      <point x="349" y="608"/>
      <point x="362" y="645" type="curve"/>
      <point x="437" y="622"/>
      <point x="482" y="538"/>
      <point x="488" y="407" type="curve"/>
    </contour>
    <contour>
      <point x="171" y="532" type="curve" smooth="yes"/>
      <point x="171" y="603"/>
      <point x="216" y="646"/>
      <point x="300" y="649" type="curve"/>
      <point x="286" y="613"/>
      <point x="279" y="577"/>
      <point x="279" y="541" type="curve" smooth="yes"/>
      <point x="279" y="491"/>
      <point x="297" y="446"/>
      <point x="335" y="407" type="curve"/>
      <point x="226" y="414"/>
      <point x="171" y="456"/>
    </contour>
  </outline>
</glyph>
<glyph name="uni1040E" format="2">
  <advance width="782"/>
  <unicode hex="1040E"/>
  <note>
uni1040E
</note>
  <outline>
    <contour>
      <point x="254" y="-10" type="curve" smooth="yes"/>
      <point x="320" y="-10"/>
      <point x="365" y="23"/>
      <point x="388" y="97" type="curve"/>
      <point x="393" y="97" type="line"/>
      <point x="413" y="26"/>
      <point x="457" y="-10"/>
      <point x="525" y="-10" type="curve" smooth="yes"/>
      <point x="645" y="-10"/>
      <point x="705" y="105"/>
      <point x="705" y="334" type="curve" smooth="yes"/>
      <point x="705" y="471"/>
      <point x="689" y="578"/>
      <point x="646" y="714" type="curve"/>
      <point x="550" y="714" type="line"/>
      <point x="595" y="569"/>
      <point x="610" y="465"/>
      <point x="610" y="332" type="curve" smooth="yes"/>
      <point x="610" y="206"/>
      <point x="601" y="68"/>
      <point x="517" y="68" type="curve" smooth="yes"/>
      <point x="451" y="68"/>
      <point x="436" y="154"/>
      <point x="436" y="252" type="curve" smooth="yes"/>
      <point x="436" y="419" type="line"/>
      <point x="346" y="419" type="line"/>
      <point x="346" y="252" type="line" smooth="yes"/>
      <point x="346" y="162"/>
      <point x="336" y="68"/>
      <point x="264" y="68" type="curve" smooth="yes"/>
      <point x="184" y="68"/>
      <point x="172" y="202"/>
      <point x="172" y="332" type="curve" smooth="yes"/>
      <point x="172" y="458"/>
      <point x="192" y="585"/>
      <point x="232" y="714" type="curve"/>
      <point x="136" y="714" type="line"/>
      <point x="96" y="591"/>
      <point x="77" y="477"/>
      <point x="77" y="334" type="curve" smooth="yes"/>
      <point x="77" y="104"/>
      <point x="135" y="-10"/>
    </contour>
  </outline>
</glyph>
<glyph name="uni1040F" format="2">
  <advance width="802"/>
  <unicode hex="1040F"/>
  <note>
uni1040F
</note>
  <outline>
    <contour>
      <point x="742" y="526" type="line"/>
      <point x="700" y="476"/>
      <point x="649" y="442"/>
      <point x="591" y="423" type="curve"/>
      <point x="674" y="714" type="line"/>
      <point x="582" y="714" type="line"/>
      <point x="498" y="405" type="line"/>
      <point x="474" y="402"/>
      <point x="451" y="401"/>
      <point x="431" y="401" type="curve" smooth="yes"/>
      <point x="400" y="401"/>
      <point x="374" y="402"/>
      <point x="352" y="406" type="curve"/>
      <point x="300" y="596" type="line" smooth="yes"/>
      <point x="276" y="684"/>
      <point x="238" y="724"/>
      <point x="164" y="724" type="curve" smooth="yes"/>
      <point x="85" y="724"/>
      <point x="34" y="674"/>
      <point x="34" y="590" type="curve" smooth="yes"/>
      <point x="34" y="477"/>
      <point x="126" y="386"/>
      <point x="277" y="350" type="curve"/>
      <point x="373" y="0" type="line"/>
      <point x="471" y="0" type="line"/>
      <point x="569" y="346" type="line"/>
      <point x="661" y="369"/>
      <point x="748" y="418"/>
      <point x="795" y="476" type="curve"/>
    </contour>
    <contour>
      <point x="159" y="647" type="curve" smooth="yes"/>
      <point x="185" y="647"/>
      <point x="202" y="629"/>
      <point x="215" y="580" type="curve" smooth="yes"/>
      <point x="255" y="428" type="line"/>
      <point x="170" y="457"/>
      <point x="117" y="519"/>
      <point x="117" y="592" type="curve" smooth="yes"/>
      <point x="117" y="629"/>
      <point x="137" y="647"/>
    </contour>
    <contour>
      <point x="422" y="100" type="curve"/>
      <point x="412" y="150"/>
      <point x="395" y="229"/>
      <point x="370" y="334" type="curve"/>
      <point x="393" y="332"/>
      <point x="415" y="331"/>
      <point x="436" y="331" type="curve" smooth="yes"/>
      <point x="450" y="331"/>
      <point x="465" y="332"/>
      <point x="479" y="333" type="curve"/>
      <point x="453" y="233"/>
      <point x="437" y="174"/>
      <point x="433" y="155" type="curve" smooth="yes"/>
      <point x="429" y="136"/>
      <point x="425" y="118"/>
    </contour>
  </outline>
</glyph>
<glyph name="uni10410" format="2">
  <advance width="688"/>
  <unicode hex="10410"/>
  <note>
uni10410
</note>
  <outline>
    <contour>
      <point x="638" y="550" type="curve" smooth="yes"/>
      <point x="638" y="659"/>
      <point x="574" y="725"/>
      <point x="466" y="725" type="curve" smooth="yes"/>
      <point x="354" y="725"/>
      <point x="287" y="652"/>
      <point x="287" y="526" type="curve" smooth="yes"/>
      <point x="287" y="419" type="line"/>
      <point x="192" y="433"/>
      <point x="144" y="475"/>
      <point x="144" y="545" type="curve" smooth="yes"/>
      <point x="144" y="594"/>
      <point x="167" y="631"/>
      <point x="214" y="656" type="curve"/>
      <point x="177" y="724" type="line"/>
      <point x="95" y="688"/>
      <point x="50" y="621"/>
      <point x="50" y="537" type="curve" smooth="yes"/>
      <point x="50" y="424"/>
      <point x="136" y="351"/>
      <point x="287" y="339" type="curve"/>
      <point x="287" y="0" type="line"/>
      <point x="377" y="0" type="line"/>
      <point x="377" y="338" type="line"/>
      <point x="539" y="348"/>
      <point x="638" y="427"/>
    </contour>
    <contour>
      <point x="377" y="535" type="line" smooth="yes"/>
      <point x="377" y="607"/>
      <point x="410" y="648"/>
      <point x="462" y="648" type="curve" smooth="yes"/>
      <point x="511" y="648"/>
      <point x="545" y="610"/>
      <point x="545" y="550" type="curve" smooth="yes"/>
      <point x="545" y="468"/>
      <point x="489" y="423"/>
      <point x="377" y="415" type="curve"/>
    </contour>
  </outline>
</glyph>
<glyph name="uni10411" format="2">
  <advance width="524"/>
  <unicode hex="10411"/>
  <note>
uni10411
</note>
  <outline>
    <contour>
      <point x="19" y="714" type="line"/>
      <point x="19" y="634" type="line"/>
      <point x="331" y="634" type="line"/>
      <point x="331" y="0" type="line"/>
      <point x="421" y="0" type="line"/>
      <point x="421" y="714" type="line"/>
    </contour>
  </outline>
</glyph>
<glyph name="uni10412" format="2">
  <advance width="667"/>
  <unicode hex="10412"/>
  <note>
uni10412
</note>
  <outline>
    <contour>
      <point x="297" y="724" type="curve" smooth="yes"/>
      <point x="168" y="724"/>
      <point x="82" y="649"/>
      <point x="82" y="536" type="curve" smooth="yes"/>
      <point x="82" y="448"/>
      <point x="134" y="389"/>
      <point x="234" y="372" type="curve"/>
      <point x="234" y="368" type="line"/>
      <point x="121" y="352"/>
      <point x="56" y="285"/>
      <point x="56" y="189" type="curve" smooth="yes"/>
      <point x="56" y="68"/>
      <point x="141" y="-10"/>
      <point x="273" y="-10" type="curve" smooth="yes"/>
      <point x="368" y="-10"/>
      <point x="445" y="33"/>
      <point x="479" y="111" type="curve"/>
      <point x="479" y="0" type="line"/>
      <point x="569" y="0" type="line"/>
      <point x="569" y="714" type="line"/>
      <point x="479" y="714" type="line"/>
      <point x="479" y="617" type="line"/>
      <point x="453" y="682"/>
      <point x="390" y="724"/>
    </contour>
    <contour>
      <point x="301" y="647" type="curve" smooth="yes"/>
      <point x="423" y="647"/>
      <point x="479" y="559"/>
      <point x="479" y="358" type="curve" smooth="yes"/>
      <point x="479" y="344" type="line" smooth="yes"/>
      <point x="476" y="161"/>
      <point x="409" y="65"/>
      <point x="285" y="65" type="curve" smooth="yes"/>
      <point x="202" y="65"/>
      <point x="150" y="112"/>
      <point x="150" y="192" type="curve" smooth="yes"/>
      <point x="150" y="284"/>
      <point x="226" y="332"/>
      <point x="368" y="332" type="curve" smooth="yes"/>
      <point x="396" y="332" type="line"/>
      <point x="396" y="407" type="line"/>
      <point x="373" y="407" type="line" smooth="yes"/>
      <point x="238" y="407"/>
      <point x="175" y="446"/>
      <point x="175" y="532" type="curve" smooth="yes"/>
      <point x="175" y="604"/>
      <point x="223" y="647"/>
    </contour>
  </outline>
</glyph>
<glyph name="uni10413" format="2">
  <advance width="600"/>
  <unicode hex="10413"/>
  <note>
uni10413
</note>
  <outline>
    <contour>
      <point x="102" y="443" type="line"/>
      <point x="102" y="578"/>
      <point x="154" y="646"/>
      <point x="259" y="646" type="curve" smooth="yes"/>
      <point x="366" y="646"/>
      <point x="413" y="587"/>
      <point x="413" y="448" type="curve" smooth="yes"/>
      <point x="413" y="0" type="line"/>
      <point x="503" y="0" type="line"/>
      <point x="503" y="466" type="line" smooth="yes"/>
      <point x="503" y="638"/>
      <point x="423" y="724"/>
      <point x="264" y="724" type="curve" smooth="yes"/>
      <point x="95" y="724"/>
      <point x="13" y="626"/>
      <point x="13" y="443" type="curve"/>
    </contour>
  </outline>
</glyph>
<glyph name="uni10414" format="2">
  <advance width="660"/>
  <unicode hex="10414"/>
  <note>
uni10414
</note>
  <outline>
    <contour>
      <point x="472" y="0" type="line"/>
      <point x="562" y="0" type="line"/>
      <point x="562" y="714" type="line"/>
      <point x="472" y="714" type="line"/>
      <point x="472" y="620" type="line"/>
      <point x="441" y="686"/>
      <point x="385" y="724"/>
      <point x="314" y="724" type="curve" smooth="yes"/>
      <point x="148" y="724"/>
      <point x="61" y="594"/>
      <point x="61" y="356" type="curve" smooth="yes"/>
      <point x="61" y="120"/>
      <point x="145" y="-10"/>
      <point x="299" y="-10" type="curve" smooth="yes"/>
      <point x="377" y="-10"/>
      <point x="435" y="28"/>
      <point x="472" y="103" type="curve"/>
    </contour>
    <contour>
      <point x="318" y="648" type="curve" smooth="yes"/>
      <point x="406" y="648"/>
      <point x="472" y="579"/>
      <point x="472" y="478" type="curve" smooth="yes"/>
      <point x="472" y="378"/>
      <point x="409" y="308"/>
      <point x="317" y="308" type="curve" smooth="yes"/>
      <point x="225" y="308"/>
      <point x="164" y="375"/>
      <point x="164" y="474" type="curve" smooth="yes"/>
      <point x="164" y="576"/>
      <point x="228" y="648"/>
    </contour>
    <contour>
      <point x="158" y="337" type="line"/>
      <point x="193" y="277"/>
      <point x="248" y="245"/>
      <point x="316" y="245" type="curve" smooth="yes"/>
      <point x="383" y="245"/>
      <point x="442" y="281"/>
      <point x="472" y="342" type="curve"/>
      <point x="472" y="208" type="line"/>
      <point x="451" y="120"/>
      <point x="396" y="69"/>
      <point x="320" y="69" type="curve" smooth="yes"/>
      <point x="207" y="69"/>
      <point x="155" y="194"/>
      <point x="155" y="337" type="curve"/>
    </contour>
  </outline>
</glyph>
<glyph name="uni10415" format="2">
  <advance width="569"/>
  <unicode hex="10415"/>
  <note>
uni10415
</note>
  <outline>
    <contour>
      <point x="368" y="645" type="curve" smooth="yes"/>
      <point x="412" y="645"/>
      <point x="458" y="632"/>
      <point x="507" y="606" type="curve"/>
      <point x="538" y="682" type="line"/>
      <point x="489" y="710"/>
      <point x="431" y="724"/>
      <point x="364" y="724" type="curve" smooth="yes"/>
      <point x="165" y="724"/>
      <point x="61" y="568"/>
      <point x="61" y="358" type="curve" smooth="yes"/>
      <point x="61" y="124"/>
      <point x="164" y="-10"/>
      <point x="349" y="-10" type="curve" smooth="yes"/>
      <point x="411" y="-10"/>
      <point x="458" y="-3"/>
      <point x="510" y="19" type="curve"/>
      <point x="510" y="97" type="line"/>
      <point x="456" y="78"/>
      <point x="408" y="69"/>
      <point x="365" y="69" type="curve" smooth="yes"/>
      <point x="231" y="69"/>
      <point x="156" y="173"/>
      <point x="156" y="357" type="curve" smooth="yes"/>
      <point x="156" y="536"/>
      <point x="237" y="645"/>
    </contour>
  </outline>
</glyph>
<glyph name="uni10416" format="2">
  <advance width="511"/>
  <unicode hex="10416"/>
  <note>
uni10416
</note>
  <outline>
    <contour>
      <point x="271" y="244" type="curve" smooth="yes"/>
      <point x="303" y="244"/>
      <point x="333" y="250"/>
      <point x="359" y="260" type="curve"/>
      <point x="208" y="0" type="line"/>
      <point x="308" y="0" type="line"/>
      <point x="474" y="307" type="line"/>
      <point x="417" y="359" type="line"/>
      <point x="391" y="338"/>
      <point x="337" y="320"/>
      <point x="290" y="320" type="curve" smooth="yes"/>
      <point x="192" y="320"/>
      <point x="137" y="377"/>
      <point x="137" y="479" type="curve" smooth="yes"/>
      <point x="137" y="586"/>
      <point x="200" y="648"/>
      <point x="304" y="648" type="curve" smooth="yes"/>
      <point x="354" y="648"/>
      <point x="400" y="633"/>
      <point x="444" y="603" type="curve"/>
      <point x="481" y="673" type="line"/>
      <point x="442" y="702"/>
      <point x="382" y="725"/>
      <point x="309" y="725" type="curve" smooth="yes"/>
      <point x="149" y="725"/>
      <point x="46" y="626"/>
      <point x="46" y="476" type="curve" smooth="yes"/>
      <point x="46" y="332"/>
      <point x="132" y="244"/>
    </contour>
  </outline>
</glyph>
<glyph name="uni10417" format="2">
  <advance width="750"/>
  <unicode hex="10417"/>
  <note>
uni10417
</note>
  <outline>
    <contour>
      <point x="594" y="334" type="curve" smooth="yes"/>
      <point x="594" y="206"/>
      <point x="584" y="68"/>
      <point x="501" y="68" type="curve" smooth="yes"/>
      <point x="435" y="68"/>
      <point x="420" y="154"/>
      <point x="420" y="252" type="curve" smooth="yes"/>
      <point x="420" y="299" type="line"/>
      <point x="330" y="299" type="line"/>
      <point x="330" y="252" type="line" smooth="yes"/>
      <point x="330" y="162"/>
      <point x="320" y="68"/>
      <point x="248" y="68" type="curve" smooth="yes"/>
      <point x="187" y="68"/>
      <point x="156" y="156"/>
      <point x="156" y="332" type="curve" smooth="yes"/>
      <point x="156" y="538"/>
      <point x="233" y="646"/>
      <point x="377" y="646" type="curve" smooth="yes"/>
      <point x="521" y="646"/>
      <point x="594" y="538"/>
    </contour>
    <contour>
      <point x="61" y="334" type="curve" smooth="yes"/>
      <point x="61" y="104"/>
      <point x="119" y="-10"/>
      <point x="238" y="-10" type="curve" smooth="yes"/>
      <point x="304" y="-10"/>
      <point x="349" y="23"/>
      <point x="372" y="97" type="curve"/>
      <point x="377" y="97" type="line"/>
      <point x="396" y="26"/>
      <point x="440" y="-10"/>
      <point x="509" y="-10" type="curve" smooth="yes"/>
      <point x="625" y="-10"/>
      <point x="689" y="110"/>
      <point x="689" y="334" type="curve" smooth="yes"/>
      <point x="689" y="578"/>
      <point x="573" y="725"/>
      <point x="377" y="725" type="curve" smooth="yes"/>
      <point x="166" y="725"/>
      <point x="61" y="558"/>
    </contour>
  </outline>
</glyph>
<glyph name="uni10418" format="2">
  <advance width="750"/>
  <unicode hex="10418"/>
  <note>
uni10418
</note>
  <outline>
    <contour>
      <point x="156" y="332" type="curve" smooth="yes"/>
      <point x="156" y="513"/>
      <point x="213" y="616"/>
      <point x="327" y="641" type="curve"/>
      <point x="314" y="605"/>
      <point x="307" y="565"/>
      <point x="307" y="520" type="curve" smooth="yes"/>
      <point x="307" y="385"/>
      <point x="383" y="311"/>
      <point x="523" y="311" type="curve" smooth="yes"/>
      <point x="537" y="311"/>
      <point x="579" y="313"/>
      <point x="594" y="317" type="curve"/>
      <point x="591" y="198"/>
      <point x="580" y="68"/>
      <point x="501" y="68" type="curve" smooth="yes"/>
      <point x="435" y="68"/>
      <point x="420" y="154"/>
      <point x="420" y="252" type="curve" smooth="yes"/>
      <point x="420" y="299" type="line"/>
      <point x="330" y="299" type="line"/>
      <point x="330" y="252" type="line" smooth="yes"/>
      <point x="330" y="162"/>
      <point x="320" y="68"/>
      <point x="248" y="68" type="curve" smooth="yes"/>
      <point x="187" y="68"/>
      <point x="156" y="156"/>
    </contour>
    <contour>
      <point x="532" y="369" type="curve" smooth="yes"/>
      <point x="425" y="369"/>
      <point x="374" y="420"/>
      <point x="374" y="526" type="curve" smooth="yes"/>
      <point x="374" y="567"/>
      <point x="382" y="620"/>
      <point x="392" y="645" type="curve"/>
      <point x="517" y="639"/>
      <point x="585" y="544"/>
      <point x="593" y="374" type="curve"/>
      <point x="575" y="371"/>
      <point x="555" y="369"/>
    </contour>
    <contour>
      <point x="61" y="334" type="curve" smooth="yes"/>
      <point x="61" y="104"/>
      <point x="119" y="-10"/>
      <point x="238" y="-10" type="curve" smooth="yes"/>
      <point x="304" y="-10"/>
      <point x="349" y="23"/>
      <point x="372" y="97" type="curve"/>
      <point x="377" y="97" type="line"/>
      <point x="396" y="26"/>
      <point x="440" y="-10"/>
      <point x="509" y="-10" type="curve" smooth="yes"/>
      <point x="625" y="-10"/>
      <point x="689" y="110"/>
      <point x="689" y="334" type="curve" smooth="yes"/>
      <point x="689" y="578"/>
      <point x="573" y="725"/>
      <point x="377" y="725" type="curve" smooth="yes"/>
      <point x="166" y="725"/>
      <point x="61" y="558"/>
    </contour>
  </outline>
</glyph>
<glyph name="uni10419" format="2">
  <advance width="605"/>
  <unicode hex="10419"/>
  <note>
uni10419
</note>
  <outline>
    <contour>
      <point x="554" y="512" type="curve" smooth="yes"/>
      <point x="554" y="640"/>
      <point x="470" y="725"/>
      <point x="337" y="725" type="curve" smooth="yes"/>
      <point x="179" y="725"/>
      <point x="97" y="636"/>
      <point x="97" y="472" type="curve" smooth="yes"/>
      <point x="97" y="0" type="line"/>
      <point x="187" y="0" type="line"/>
      <point x="187" y="278" type="line"/>
      <point x="269" y="278" type="line" smooth="yes"/>
      <point x="453" y="278"/>
      <point x="554" y="360"/>
    </contour>
    <contour>
      <point x="187" y="464" type="line" smooth="yes"/>
      <point x="187" y="591"/>
      <point x="237" y="648"/>
      <point x="331" y="648" type="curve" smooth="yes"/>
      <point x="411" y="648"/>
      <point x="461" y="594"/>
      <point x="461" y="508" type="curve" smooth="yes"/>
      <point x="461" y="400"/>
      <point x="402" y="355"/>
      <point x="259" y="355" type="curve" smooth="yes"/>
      <point x="187" y="355" type="line"/>
    </contour>
  </outline>
</glyph>
<glyph name="uni1041A" format="2">
  <advance width="548"/>
  <unicode hex="1041A"/>
  <note>
uni1041A
</note>
  <outline>
    <contour>
      <point x="466" y="547" type="curve" smooth="yes"/>
      <point x="466" y="662"/>
      <point x="386" y="724"/>
      <point x="236" y="724" type="curve" smooth="yes"/>
      <point x="155" y="724"/>
      <point x="81" y="702"/>
      <point x="26" y="665" type="curve"/>
      <point x="62" y="599" type="line"/>
      <point x="114" y="633"/>
      <point x="168" y="650"/>
      <point x="226" y="650" type="curve" smooth="yes"/>
      <point x="321" y="650"/>
      <point x="373" y="609"/>
      <point x="373" y="531" type="curve" smooth="yes"/>
      <point x="373" y="447"/>
      <point x="310" y="407"/>
      <point x="173" y="407" type="curve" smooth="yes"/>
      <point x="132" y="407" type="line"/>
      <point x="132" y="332" type="line"/>
      <point x="200" y="332" type="line" smooth="yes"/>
      <point x="335" y="332"/>
      <point x="398" y="290"/>
      <point x="398" y="194" type="curve" smooth="yes"/>
      <point x="398" y="110"/>
      <point x="331" y="64"/>
      <point x="222" y="64" type="curve" smooth="yes"/>
      <point x="158" y="64"/>
      <point x="93" y="78"/>
      <point x="28" y="107" type="curve"/>
      <point x="28" y="29" type="line"/>
      <point x="79" y="5"/>
      <point x="153" y="-10"/>
      <point x="227" y="-10" type="curve" smooth="yes"/>
      <point x="387" y="-10"/>
      <point x="492" y="75"/>
      <point x="492" y="201" type="curve" smooth="yes"/>
      <point x="492" y="295"/>
      <point x="430" y="357"/>
      <point x="314" y="374" type="curve"/>
      <point x="314" y="378" type="line"/>
      <point x="410" y="394"/>
      <point x="466" y="456"/>
    </contour>
  </outline>
</glyph>
<glyph name="uni1041B" format="2">
  <advance width="524"/>
  <unicode hex="1041B"/>
  <note>
uni1041B
</note>
  <outline>
    <contour>
      <point x="499" y="0" type="line"/>
      <point x="499" y="80" type="line"/>
      <point x="187" y="80" type="line"/>
      <point x="187" y="714" type="line"/>
      <point x="97" y="714" type="line"/>
      <point x="97" y="0" type="line"/>
    </contour>
  </outline>
</glyph>
<glyph name="uni1041C" format="2">
  <advance width="566"/>
  <unicode hex="1041C"/>
  <note>
uni1041C
</note>
  <outline>
    <contour>
      <point x="566" y="714" type="line"/>
      <point x="469" y="714" type="line"/>
      <point x="286" y="433" type="line"/>
      <point x="98" y="714" type="line"/>
      <point x="0" y="714" type="line"/>
      <point x="238" y="363" type="line"/>
      <point x="204" y="310" type="line" smooth="yes"/>
      <point x="159" y="240"/>
      <point x="136" y="183"/>
      <point x="136" y="138" type="curve" smooth="yes"/>
      <point x="136" y="44"/>
      <point x="195" y="-10"/>
      <point x="287" y="-10" type="curve" smooth="yes"/>
      <point x="376" y="-10"/>
      <point x="440" y="51"/>
      <point x="440" y="141" type="curve" smooth="yes"/>
      <point x="440" y="186"/>
      <point x="420" y="238"/>
      <point x="374" y="308" type="curve" smooth="yes"/>
      <point x="337" y="364" type="line"/>
    </contour>
    <contour>
      <point x="358" y="140" type="curve" smooth="yes"/>
      <point x="358" y="95"/>
      <point x="334" y="64"/>
      <point x="286" y="64" type="curve" smooth="yes"/>
      <point x="243" y="64"/>
      <point x="217" y="92"/>
      <point x="217" y="138" type="curve" smooth="yes"/>
      <point x="217" y="176"/>
      <point x="240" y="228"/>
      <point x="285" y="294" type="curve"/>
      <point x="333" y="226"/>
      <point x="358" y="175"/>
    </contour>
  </outline>
</glyph>
<glyph name="uni1041D" format="2">
  <advance width="572"/>
  <unicode hex="1041D"/>
  <note>
uni1041D
</note>
  <outline>
    <contour>
      <point x="298" y="724" type="curve" smooth="yes"/>
      <point x="165" y="724"/>
      <point x="81" y="661"/>
      <point x="81" y="559" type="curve" smooth="yes"/>
      <point x="81" y="522"/>
      <point x="99" y="478"/>
      <point x="126" y="450" type="curve"/>
      <point x="85" y="455"/>
      <point x="47" y="468"/>
      <point x="11" y="490" type="curve"/>
      <point x="-19" y="429" type="line"/>
      <point x="33" y="397"/>
      <point x="99" y="382"/>
      <point x="180" y="382" type="curve" smooth="yes"/>
      <point x="197" y="382" type="line"/>
      <point x="220" y="367"/>
      <point x="239" y="355"/>
      <point x="255" y="347" type="curve"/>
      <point x="135" y="327"/>
      <point x="56" y="254"/>
      <point x="56" y="158" type="curve" smooth="yes"/>
      <point x="56" y="55"/>
      <point x="143" y="-10"/>
      <point x="283" y="-10" type="curve" smooth="yes"/>
      <point x="427" y="-10"/>
      <point x="512" y="54"/>
      <point x="512" y="155" type="curve" smooth="yes"/>
      <point x="512" y="205"/>
      <point x="491" y="249"/>
      <point x="448" y="286" type="curve"/>
      <point x="489" y="282"/>
      <point x="527" y="269"/>
      <point x="564" y="248" type="curve"/>
      <point x="595" y="310" type="line"/>
      <point x="540" y="341"/>
      <point x="463" y="357"/>
      <point x="365" y="357" type="curve"/>
      <point x="306" y="390" type="line"/>
      <point x="425" y="412"/>
      <point x="497" y="477"/>
      <point x="497" y="566" type="curve" smooth="yes"/>
      <point x="497" y="660"/>
      <point x="415" y="724"/>
    </contour>
    <contour>
      <point x="142" y="170" type="curve" smooth="yes"/>
      <point x="142" y="238"/>
      <point x="203" y="277"/>
      <point x="328" y="291" type="curve"/>
      <point x="391" y="261"/>
      <point x="426" y="214"/>
      <point x="426" y="160" type="curve" smooth="yes"/>
      <point x="426" y="97"/>
      <point x="380" y="60"/>
      <point x="283" y="60" type="curve" smooth="yes"/>
      <point x="195" y="60"/>
      <point x="142" y="103"/>
    </contour>
    <contour>
      <point x="292" y="653" type="curve" smooth="yes"/>
      <point x="361" y="653"/>
      <point x="410" y="613"/>
      <point x="410" y="557" type="curve" smooth="yes"/>
      <point x="410" y="484"/>
      <point x="338" y="461"/>
      <point x="240" y="447" type="curve"/>
      <point x="193" y="474"/>
      <point x="167" y="511"/>
      <point x="167" y="553" type="curve" smooth="yes"/>
      <point x="167" y="620"/>
      <point x="212" y="653"/>
    </contour>
  </outline>
</glyph>
<glyph name="uni1041E" format="2">
  <advance width="600"/>
  <unicode hex="1041E"/>
  <note>
uni1041E
</note>
  <outline>
    <contour>
      <point x="155" y="377" type="line"/>
      <point x="155" y="549"/>
      <point x="232" y="645"/>
      <point x="364" y="645" type="curve" smooth="yes"/>
      <point x="419" y="645"/>
      <point x="464" y="626"/>
      <point x="503" y="606" type="curve"/>
      <point x="534" y="682" type="line"/>
      <point x="484" y="710"/>
      <point x="426" y="724"/>
      <point x="360" y="724" type="curve" smooth="yes"/>
      <point x="174" y="724"/>
      <point x="61" y="585"/>
      <point x="61" y="358" type="curve" smooth="yes"/>
      <point x="61" y="116"/>
      <point x="152" y="-10"/>
      <point x="324" y="-10" type="curve" smooth="yes"/>
      <point x="462" y="-10"/>
      <point x="562" y="99"/>
      <point x="562" y="247" type="curve" smooth="yes"/>
      <point x="562" y="390"/>
      <point x="475" y="481"/>
      <point x="348" y="481" type="curve" smooth="yes"/>
      <point x="261" y="481"/>
      <point x="195" y="444"/>
      <point x="161" y="377" type="curve"/>
    </contour>
    <contour>
      <point x="323" y="66" type="curve" smooth="yes"/>
      <point x="223" y="66"/>
      <point x="164" y="159"/>
      <point x="164" y="253" type="curve" smooth="yes"/>
      <point x="164" y="319"/>
      <point x="223" y="405"/>
      <point x="326" y="405" type="curve" smooth="yes"/>
      <point x="418" y="405"/>
      <point x="471" y="345"/>
      <point x="471" y="239" type="curve" smooth="yes"/>
      <point x="471" y="137"/>
      <point x="410" y="66"/>
    </contour>
  </outline>
</glyph>
<glyph name="uni1041F" format="2">
  <advance width="660"/>
  <unicode hex="1041F"/>
  <note>
uni1041F
</note>
  <outline>
    <contour>
      <point x="188" y="714" type="line"/>
      <point x="98" y="714" type="line"/>
      <point x="98" y="0" type="line"/>
      <point x="188" y="0" type="line"/>
      <point x="188" y="94" type="line"/>
      <point x="219" y="28"/>
      <point x="275" y="-10"/>
      <point x="346" y="-10" type="curve" smooth="yes"/>
      <point x="511" y="-10"/>
      <point x="599" y="120"/>
      <point x="599" y="358" type="curve" smooth="yes"/>
      <point x="599" y="596"/>
      <point x="515" y="724"/>
      <point x="361" y="724" type="curve" smooth="yes"/>
      <point x="283" y="724"/>
      <point x="226" y="687"/>
      <point x="188" y="611" type="curve"/>
    </contour>
    <contour>
      <point x="188" y="506" type="line"/>
      <point x="210" y="595"/>
      <point x="265" y="645"/>
      <point x="340" y="645" type="curve" smooth="yes"/>
      <point x="445" y="645"/>
      <point x="505" y="547"/>
      <point x="505" y="357" type="curve" smooth="yes"/>
      <point x="505" y="164"/>
      <point x="451" y="68"/>
      <point x="342" y="68" type="curve" smooth="yes"/>
      <point x="265" y="68"/>
      <point x="205" y="125"/>
      <point x="188" y="207" type="curve"/>
    </contour>
  </outline>
</glyph>
<glyph name="uni10420" format="2">
  <advance width="549"/>
  <unicode hex="10420"/>
  <note>
uni10420
</note>
  <outline>
    <contour>
      <point x="502" y="191" type="curve" smooth="yes"/>
      <point x="502" y="224"/>
      <point x="496" y="253"/>
      <point x="483" y="277" type="curve" smooth="yes"/>
      <point x="458" y="325"/>
      <point x="413" y="358"/>
      <point x="307" y="397" type="curve" smooth="yes"/>
      <point x="263" y="413"/>
      <point x="230" y="428"/>
      <point x="210" y="440" type="curve" smooth="yes"/>
      <point x="168" y="466"/>
      <point x="151" y="494"/>
      <point x="151" y="541" type="curve" smooth="yes"/>
      <point x="151" y="607"/>
      <point x="202" y="645"/>
      <point x="286" y="645" type="curve" smooth="yes"/>
      <point x="339" y="645"/>
      <point x="396" y="632"/>
      <point x="457" y="607" type="curve"/>
      <point x="485" y="684" type="line"/>
      <point x="425" y="711"/>
      <point x="359" y="724"/>
      <point x="288" y="724" type="curve" smooth="yes"/>
      <point x="151" y="724"/>
      <point x="60" y="653"/>
      <point x="60" y="542" type="curve" smooth="yes"/>
      <point x="60" y="438"/>
      <point x="112" y="378"/>
      <point x="244" y="330" type="curve" smooth="yes"/>
      <point x="291" y="313"/>
      <point x="326" y="298"/>
      <point x="349" y="285" type="curve" smooth="yes"/>
      <point x="395" y="258"/>
      <point x="412" y="230"/>
      <point x="412" y="183" type="curve" smooth="yes"/>
      <point x="412" y="111"/>
      <point x="358" y="68"/>
      <point x="251" y="68" type="curve" smooth="yes"/>
      <point x="188" y="68"/>
      <point x="111" y="84"/>
      <point x="51" y="110" type="curve"/>
      <point x="51" y="24" type="line"/>
      <point x="97" y="1"/>
      <point x="163" y="-10"/>
      <point x="247" y="-10" type="curve" smooth="yes"/>
      <point x="407" y="-10"/>
      <point x="502" y="66"/>
    </contour>
  </outline>
</glyph>
<glyph name="uni10421" format="2">
  <advance width="688"/>
  <unicode hex="10421"/>
  <note>
uni10421
</note>
  <outline>
    <contour>
      <point x="50" y="402" type="curve" smooth="yes"/>
      <point x="50" y="269"/>
      <point x="149" y="184"/>
      <point x="311" y="178" type="curve"/>
      <point x="311" y="0" type="line"/>
      <point x="401" y="0" type="line"/>
      <point x="401" y="179" type="line"/>
      <point x="547" y="193"/>
      <point x="638" y="276"/>
      <point x="638" y="395" type="curve" smooth="yes"/>
      <point x="638" y="479"/>
      <point x="596" y="535"/>
      <point x="511" y="564" type="curve"/>
      <point x="474" y="494" type="line"/>
      <point x="522" y="476"/>
      <point x="546" y="442"/>
      <point x="546" y="393" type="curve" smooth="yes"/>
      <point x="546" y="319"/>
      <point x="491" y="266"/>
      <point x="401" y="258" type="curve"/>
      <point x="401" y="714" type="line"/>
      <point x="311" y="714" type="line"/>
      <point x="311" y="486" type="line"/>
      <point x="292" y="537"/>
      <point x="252" y="565"/>
      <point x="200" y="565" type="curve" smooth="yes"/>
      <point x="109" y="565"/>
      <point x="50" y="500"/>
    </contour>
    <contour>
      <point x="311" y="256" type="line"/>
      <point x="199" y="265"/>
      <point x="143" y="314"/>
      <point x="143" y="405" type="curve" smooth="yes"/>
      <point x="143" y="457"/>
      <point x="171" y="488"/>
      <point x="215" y="488" type="curve" smooth="yes"/>
      <point x="273" y="488"/>
      <point x="311" y="420"/>
      <point x="311" y="315" type="curve" smooth="yes"/>
    </contour>
  </outline>
</glyph>
<glyph name="uni10422" format="2">
  <advance width="600"/>
  <unicode hex="10422"/>
  <note>
uni10422
</note>
  <outline>
    <contour>
      <point x="498" y="272" type="line"/>
      <point x="498" y="137"/>
      <point x="446" y="69"/>
      <point x="341" y="69" type="curve" smooth="yes"/>
      <point x="235" y="69"/>
      <point x="187" y="127"/>
      <point x="187" y="267" type="curve" smooth="yes"/>
      <point x="187" y="715" type="line"/>
      <point x="97" y="715" type="line"/>
      <point x="97" y="249" type="line" smooth="yes"/>
      <point x="97" y="77"/>
      <point x="177" y="-9"/>
      <point x="336" y="-9" type="curve" smooth="yes"/>
      <point x="504" y="-9"/>
      <point x="587" y="89"/>
      <point x="587" y="272" type="curve"/>
    </contour>
  </outline>
</glyph>
<glyph name="uni10423" format="2">
  <advance width="569"/>
  <unicode hex="10423"/>
  <note>
uni10423
</note>
  <outline>
    <contour>
      <point x="201" y="69" type="curve" smooth="yes"/>
      <point x="149" y="69"/>
      <point x="96" y="83"/>
      <point x="43" y="110" type="curve"/>
      <point x="43" y="22" type="line"/>
      <point x="87" y="1"/>
      <point x="138" y="-10"/>
      <point x="196" y="-10" type="curve" smooth="yes"/>
      <point x="390" y="-10"/>
      <point x="508" y="128"/>
      <point x="508" y="359" type="curve" smooth="yes"/>
      <point x="508" y="597"/>
      <point x="406" y="724"/>
      <point x="215" y="724" type="curve" smooth="yes"/>
      <point x="154" y="724"/>
      <point x="97" y="712"/>
      <point x="43" y="689" type="curve"/>
      <point x="65" y="612" type="line"/>
      <point x="114" y="634"/>
      <point x="161" y="645"/>
      <point x="204" y="645" type="curve" smooth="yes"/>
      <point x="340" y="645"/>
      <point x="413" y="545"/>
      <point x="413" y="360" type="curve" smooth="yes"/>
      <point x="413" y="176"/>
      <point x="334" y="69"/>
    </contour>
  </outline>
</glyph>
<glyph name="uni10424" format="2">
  <advance width="653"/>
  <unicode hex="10424"/>
  <note>
uni10424
</note>
  <outline>
    <contour>
      <point x="465" y="430" type="line"/>
      <point x="465" y="0" type="line"/>
      <point x="555" y="0" type="line"/>
      <point x="555" y="530" type="line"/>
      <point x="465" y="530" type="line"/>
      <point x="187" y="313" type="line"/>
      <point x="187" y="714" type="line"/>
      <point x="97" y="714" type="line"/>
      <point x="97" y="217" type="line"/>
      <point x="187" y="217" type="line"/>
    </contour>
  </outline>
</glyph>
<glyph name="uni10425" format="2">
  <advance width="690"/>
  <unicode hex="10425"/>
  <note>
uni10425
</note>
  <outline>
    <contour>
      <point x="98" y="0" type="line"/>
      <point x="198" y="0" type="line"/>
      <point x="512" y="594" type="line"/>
      <point x="516" y="594" type="line"/>
      <point x="514" y="567"/>
      <point x="508" y="456"/>
      <point x="508" y="388" type="curve" smooth="yes"/>
      <point x="508" y="0" type="line"/>
      <point x="592" y="0" type="line"/>
      <point x="592" y="714" type="line"/>
      <point x="492" y="714" type="line"/>
      <point x="179" y="123" type="line"/>
      <point x="175" y="123" type="line"/>
      <point x="178" y="150"/>
      <point x="182" y="267"/>
      <point x="182" y="322" type="curve" smooth="yes"/>
      <point x="182" y="714" type="line"/>
      <point x="98" y="714" type="line"/>
    </contour>
  </outline>
</glyph>
<glyph name="uni10426" format="2">
  <advance width="757"/>
  <unicode hex="10426"/>
  <note>
uni10426
</note>
  <outline>
    <contour>
      <point x="381" y="538" type="line"/>
      <point x="540" y="445" type="line"/>
      <point x="540" y="124" type="line"/>
      <point x="414" y="250" type="line"/>
      <point x="354" y="250" type="line"/>
      <point x="254" y="99" type="line"/>
      <point x="92" y="257" type="line"/>
      <point x="27" y="191" type="line"/>
      <point x="226" y="0" type="line"/>
      <point x="292" y="0" type="line"/>
      <point x="388" y="153" type="line"/>
      <point x="542" y="0" type="line"/>
      <point x="633" y="0" type="line"/>
      <point x="633" y="390" type="line"/>
      <point x="731" y="333" type="line"/>
      <point x="775" y="402" type="line"/>
      <point x="633" y="486" type="line"/>
      <point x="633" y="714" type="line"/>
      <point x="540" y="714" type="line"/>
      <point x="540" y="541" type="line"/>
      <point x="427" y="608" type="line"/>
    </contour>
  </outline>
</glyph>
<glyph name="uni10427" format="2">
  <advance width="691"/>
  <unicode hex="10427"/>
  <note>
uni10427
</note>
  <outline>
    <contour>
      <point x="630" y="358" type="curve" smooth="yes"/>
      <point x="630" y="588"/>
      <point x="526" y="725"/>
      <point x="347" y="725" type="curve" smooth="yes"/>
      <point x="164" y="725"/>
      <point x="61" y="593"/>
      <point x="61" y="359" type="curve" smooth="yes"/>
      <point x="61" y="123"/>
      <point x="165" y="-10"/>
      <point x="346" y="-10" type="curve" smooth="yes"/>
      <point x="525" y="-10"/>
      <point x="630" y="127"/>
    </contour>
    <contour>
      <point x="535" y="358" type="curve" smooth="yes"/>
      <point x="535" y="184"/>
      <point x="479" y="85"/>
      <point x="376" y="70" type="curve"/>
      <point x="376" y="290" type="line"/>
      <point x="470" y="222" type="line"/>
      <point x="493" y="301" type="line"/>
      <point x="376" y="388" type="line"/>
      <point x="376" y="644" type="line"/>
      <point x="479" y="630"/>
      <point x="535" y="532"/>
    </contour>
    <contour>
      <point x="199" y="420" type="line"/>
      <point x="315" y="335" type="line"/>
      <point x="315" y="70" type="line"/>
      <point x="212" y="85"/>
      <point x="156" y="184"/>
      <point x="156" y="358" type="curve" smooth="yes"/>
      <point x="156" y="530"/>
      <point x="211" y="628"/>
      <point x="315" y="643" type="curve"/>
      <point x="315" y="433" type="line"/>
      <point x="225" y="500" type="line"/>
    </contour>
  </outline>
</glyph>
<glyph name="uni10428" format="2">
  <advance width="533"/>
  <unicode hex="10428"/>
  <note>
uni10428
</note>
  <outline>
    <contour>
      <point x="240" y="366" type="curve" smooth="yes"/>
      <point x="122" y="366"/>
      <point x="44" y="296"/>
      <point x="44" y="186" type="curve" smooth="yes"/>
      <point x="44" y="72"/>
      <point x="137" y="-10"/>
      <point x="253" y="-10" type="curve" smooth="yes"/>
      <point x="397" y="-10"/>
      <point x="478" y="90"/>
      <point x="478" y="268" type="curve" smooth="yes"/>
      <point x="478" y="438"/>
      <point x="384" y="546"/>
      <point x="231" y="546" type="curve" smooth="yes"/>
      <point x="174" y="546"/>
      <point x="121" y="533"/>
      <point x="70" y="508" type="curve"/>
      <point x="94" y="439" type="line"/>
      <point x="139" y="461"/>
      <point x="184" y="472"/>
      <point x="230" y="472" type="curve" smooth="yes"/>
      <point x="317" y="472"/>
      <point x="377" y="412"/>
      <point x="384" y="301" type="curve"/>
      <point x="353" y="343"/>
      <point x="299" y="366"/>
    </contour>
    <contour>
      <point x="254" y="63" type="curve" smooth="yes"/>
      <point x="184" y="63"/>
      <point x="135" y="113"/>
      <point x="135" y="181" type="curve" smooth="yes"/>
      <point x="135" y="252"/>
      <point x="178" y="295"/>
      <point x="250" y="295" type="curve" smooth="yes"/>
      <point x="324" y="295"/>
      <point x="377" y="250"/>
      <point x="377" y="192" type="curve" smooth="yes"/>
      <point x="377" y="118"/>
      <point x="326" y="63"/>
    </contour>
  </outline>
</glyph>
<glyph name="uni10429" format="2">
  <advance width="489"/>
  <unicode hex="10429"/>
  <note>
uni10429
</note>
  <outline>
    <contour>
      <point x="299" y="315" type="line" smooth="yes"/>
      <point x="197" y="315"/>
      <point x="146" y="342"/>
      <point x="146" y="397" type="curve" smooth="yes"/>
      <point x="146" y="448"/>
      <point x="187" y="473"/>
      <point x="267" y="473" type="curve" smooth="yes"/>
      <point x="315" y="473"/>
      <point x="352" y="467"/>
      <point x="416" y="438" type="curve"/>
      <point x="449" y="508" type="line"/>
      <point x="393" y="535"/>
      <point x="340" y="546"/>
      <point x="268" y="546" type="curve" smooth="yes"/>
      <point x="144" y="546"/>
      <point x="62" y="492"/>
      <point x="62" y="404" type="curve" smooth="yes"/>
      <point x="62" y="343"/>
      <point x="98" y="300"/>
      <point x="162" y="282" type="curve"/>
      <point x="162" y="277" type="line"/>
      <point x="77" y="252"/>
      <point x="43" y="210"/>
      <point x="43" y="146" type="curve" smooth="yes"/>
      <point x="43" y="50"/>
      <point x="125" y="-10"/>
      <point x="268" y="-10" type="curve" smooth="yes"/>
      <point x="342" y="-10"/>
      <point x="401" y="2"/>
      <point x="447" y="27" type="curve"/>
      <point x="447" y="104" type="line"/>
      <point x="382" y="73"/>
      <point x="328" y="62"/>
      <point x="273" y="62" type="curve" smooth="yes"/>
      <point x="180" y="62"/>
      <point x="131" y="93"/>
      <point x="131" y="151" type="curve" smooth="yes"/>
      <point x="131" y="212"/>
      <point x="181" y="243"/>
      <point x="282" y="243" type="curve" smooth="yes"/>
      <point x="355" y="243" type="line"/>
      <point x="355" y="315" type="line"/>
    </contour>
  </outline>
</glyph>
<glyph name="uni1042B" format="2">
  <advance width="606"/>
  <unicode hex="1042B"/>
  <note>
uni1042B
</note>
  <outline>
    <contour>
      <point x="551" y="268" type="curve" smooth="yes"/>
      <point x="551" y="440"/>
      <point x="457" y="546"/>
      <point x="304" y="546" type="curve" smooth="yes"/>
      <point x="147" y="546"/>
      <point x="55" y="445"/>
      <point x="55" y="269" type="curve" smooth="yes"/>
      <point x="55" y="99"/>
      <point x="152" y="-10"/>
      <point x="301" y="-10" type="curve" smooth="yes"/>
      <point x="458" y="-10"/>
      <point x="551" y="96"/>
    </contour>
    <contour>
      <point x="146" y="268" type="curve" smooth="yes"/>
      <point x="146" y="382"/>
      <point x="183" y="448"/>
      <point x="257" y="467" type="curve"/>
      <point x="249" y="441"/>
      <point x="245" y="415"/>
      <point x="245" y="390" type="curve" smooth="yes"/>
      <point x="245" y="274"/>
      <point x="302" y="220"/>
      <point x="419" y="220" type="curve" smooth="yes"/>
      <point x="425" y="220"/>
      <point x="438" y="222"/>
      <point x="458" y="224" type="curve"/>
      <point x="446" y="118"/>
      <point x="393" y="63"/>
      <point x="303" y="63" type="curve" smooth="yes"/>
      <point x="201" y="63"/>
      <point x="146" y="133"/>
    </contour>
    <contour>
      <point x="425" y="271" type="curve" smooth="yes"/>
      <point x="337" y="271"/>
      <point x="303" y="306"/>
      <point x="303" y="400" type="curve" smooth="yes"/>
      <point x="303" y="429"/>
      <point x="309" y="460"/>
      <point x="313" y="472" type="curve"/>
      <point x="409" y="465"/>
      <point x="458" y="399"/>
      <point x="460" y="274" type="curve"/>
      <point x="447" y="272"/>
      <point x="436" y="271"/>
    </contour>
  </outline>
</glyph>
<glyph name="uni1042C" format="2">
  <advance width="605"/>
  <unicode hex="1042C"/>
  <note>
uni1042C
</note>
  <outline>
    <contour>
      <point x="551" y="269" type="curve" smooth="yes"/>
      <point x="551" y="439"/>
      <point x="455" y="546"/>
      <point x="304" y="546" type="curve" smooth="yes"/>
      <point x="146" y="546"/>
      <point x="55" y="443"/>
      <point x="55" y="269" type="curve" smooth="yes"/>
      <point x="55" y="106"/>
      <point x="146" y="-10"/>
      <point x="301" y="-10" type="curve" smooth="yes"/>
      <point x="457" y="-10"/>
      <point x="551" y="94"/>
    </contour>
    <contour>
      <point x="146" y="269" type="curve" smooth="yes"/>
      <point x="146" y="404"/>
      <point x="198" y="472"/>
      <point x="302" y="472" type="curve" smooth="yes"/>
      <point x="405" y="472"/>
      <point x="460" y="404"/>
      <point x="460" y="269" type="curve" smooth="yes"/>
      <point x="460" y="134"/>
      <point x="405" y="63"/>
      <point x="303" y="63" type="curve" smooth="yes"/>
      <point x="200" y="63"/>
      <point x="146" y="134"/>
    </contour>
  </outline>
</glyph>
<glyph name="uni1042D" format="2">
  <advance width="606"/>
  <unicode hex="1042D"/>
  <note>
uni1042D
</note>
  <outline>
    <contour>
      <point x="551" y="269" type="curve" smooth="yes"/>
      <point x="551" y="439"/>
      <point x="455" y="546"/>
      <point x="304" y="546" type="curve" smooth="yes"/>
      <point x="146" y="546"/>
      <point x="55" y="443"/>
      <point x="55" y="269" type="curve" smooth="yes"/>
      <point x="55" y="106"/>
      <point x="146" y="-10"/>
      <point x="301" y="-10" type="curve" smooth="yes"/>
      <point x="457" y="-10"/>
      <point x="551" y="94"/>
    </contour>
    <contour>
      <point x="146" y="269" type="curve" smooth="yes"/>
      <point x="146" y="392"/>
      <point x="190" y="459"/>
      <point x="276" y="470" type="curve"/>
      <point x="276" y="65" type="line"/>
      <point x="191" y="76"/>
      <point x="146" y="146"/>
    </contour>
    <contour>
      <point x="460" y="269" type="curve" smooth="yes"/>
      <point x="460" y="152"/>
      <point x="418" y="77"/>
      <point x="330" y="65" type="curve"/>
      <point x="330" y="470" type="line"/>
      <point x="415" y="458"/>
      <point x="460" y="389"/>
    </contour>
  </outline>
</glyph>
<glyph name="uni1042E" format="2">
  <advance width="400"/>
  <unicode hex="1042E"/>
  <note>
uni1042E
</note>
  <outline>
    <contour>
      <point x="15" y="335" type="line"/>
      <point x="157" y="257" type="line"/>
      <point x="157" y="0" type="line"/>
      <point x="245" y="0" type="line"/>
      <point x="245" y="212" type="line"/>
      <point x="349" y="156" type="line"/>
      <point x="385" y="230" type="line"/>
      <point x="245" y="305" type="line"/>
      <point x="245" y="536" type="line"/>
      <point x="157" y="536" type="line"/>
      <point x="157" y="352" type="line"/>
      <point x="54" y="409" type="line"/>
    </contour>
  </outline>
</glyph>
<glyph name="uni1042F" format="2">
  <advance width="521"/>
  <unicode hex="1042F"/>
  <note>
uni1042F
</note>
  <outline>
    <contour>
      <point x="348" y="536" type="line"/>
      <point x="348" y="109" type="line"/>
      <point x="317" y="140"/>
      <point x="268" y="159"/>
      <point x="216" y="159" type="curve" smooth="yes"/>
      <point x="118" y="159"/>
      <point x="42" y="104"/>
      <point x="10" y="9" type="curve"/>
      <point x="90" y="-15" type="line"/>
      <point x="111" y="48"/>
      <point x="155" y="80"/>
      <point x="216" y="80" type="curve" smooth="yes"/>
      <point x="277" y="80"/>
      <point x="327" y="50"/>
      <point x="351" y="0" type="curve"/>
      <point x="436" y="0" type="line"/>
      <point x="436" y="536" type="line"/>
    </contour>
  </outline>
</glyph>
<glyph name="uni10430" format="2">
  <advance width="485"/>
  <unicode hex="10430"/>
  <note>
uni10430
</note>
  <outline>
    <contour>
      <point x="400" y="536" type="line"/>
      <point x="312" y="536" type="line"/>
      <point x="312" y="94" type="line"/>
      <point x="59" y="208" type="line"/>
      <point x="14" y="138" type="line"/>
      <point x="320" y="0" type="line"/>
      <point x="400" y="0" type="line"/>
    </contour>
  </outline>
</glyph>
<glyph name="uni10431" format="2">
  <advance width="617"/>
  <unicode hex="10431"/>
  <note>
uni10431
</note>
  <outline>
    <contour>
      <point x="532" y="536" type="line"/>
      <point x="444" y="536" type="line"/>
      <point x="444" y="116" type="line"/>
      <point x="345" y="217" type="line"/>
      <point x="290" y="217" type="line"/>
      <point x="205" y="89" type="line"/>
      <point x="71" y="225" type="line"/>
      <point x="10" y="168" type="line"/>
      <point x="178" y="0" type="line"/>
      <point x="240" y="0" type="line"/>
      <point x="322" y="127" type="line"/>
      <point x="451" y="0" type="line"/>
      <point x="532" y="0" type="line"/>
    </contour>
  </outline>
</glyph>
<glyph name="uni10432" format="2">
  <advance width="521"/>
  <unicode hex="10432"/>
  <note>
uni10432
</note>
  <outline>
    <contour>
      <point x="173" y="0" type="line"/>
      <point x="173" y="427" type="line"/>
      <point x="204" y="396"/>
      <point x="254" y="377"/>
      <point x="305" y="377" type="curve" smooth="yes"/>
      <point x="402" y="377"/>
      <point x="479" y="431"/>
      <point x="511" y="527" type="curve"/>
      <point x="431" y="551" type="line"/>
      <point x="410" y="488"/>
      <point x="368" y="456"/>
      <point x="305" y="456" type="curve" smooth="yes"/>
      <point x="244" y="456"/>
      <point x="194" y="486"/>
      <point x="170" y="536" type="curve"/>
      <point x="85" y="536" type="line"/>
      <point x="85" y="0" type="line"/>
    </contour>
  </outline>
</glyph>
<glyph name="uni10433" format="2">
  <advance width="526"/>
  <unicode hex="10433"/>
  <note>
uni10433
</note>
  <outline>
    <contour>
      <point x="54" y="374" type="curve" smooth="yes"/>
      <point x="54" y="263"/>
      <point x="137" y="202"/>
      <point x="293" y="202" type="curve" smooth="yes"/>
      <point x="357" y="202" type="line"/>
      <point x="357" y="0" type="line"/>
      <point x="445" y="0" type="line"/>
      <point x="445" y="350" type="line" smooth="yes"/>
      <point x="445" y="479"/>
      <point x="370" y="544"/>
      <point x="241" y="544" type="curve" smooth="yes"/>
      <point x="126" y="544"/>
      <point x="54" y="478"/>
    </contour>
    <contour>
      <point x="357" y="274" type="line"/>
      <point x="306" y="274" type="line" smooth="yes"/>
      <point x="191" y="274"/>
      <point x="144" y="306"/>
      <point x="144" y="378" type="curve" smooth="yes"/>
      <point x="144" y="435"/>
      <point x="184" y="472"/>
      <point x="246" y="472" type="curve" smooth="yes"/>
      <point x="320" y="472"/>
      <point x="357" y="430"/>
      <point x="357" y="344" type="curve" smooth="yes"/>
    </contour>
  </outline>
</glyph>
<glyph name="uni10434" format="2">
  <advance width="581"/>
  <unicode hex="10434"/>
  <note>
uni10434
</note>
  <outline>
    <contour>
      <point x="40" y="138" type="curve" smooth="yes"/>
      <point x="40" y="47"/>
      <point x="96" y="-8"/>
      <point x="189" y="-8" type="curve" smooth="yes"/>
      <point x="288" y="-8"/>
      <point x="344" y="54"/>
      <point x="344" y="150" type="curve" smooth="yes"/>
      <point x="344" y="234" type="line"/>
      <point x="412" y="225"/>
      <point x="451" y="189"/>
      <point x="451" y="138" type="curve" smooth="yes"/>
      <point x="451" y="98"/>
      <point x="430" y="69"/>
      <point x="388" y="53" type="curve"/>
      <point x="422" y="-9" type="line"/>
      <point x="498" y="18"/>
      <point x="541" y="72"/>
      <point x="541" y="142" type="curve" smooth="yes"/>
      <point x="541" y="234"/>
      <point x="465" y="298"/>
      <point x="344" y="308" type="curve"/>
      <point x="344" y="536" type="line"/>
      <point x="256" y="536" type="line"/>
      <point x="256" y="309" type="line"/>
      <point x="127" y="301"/>
      <point x="40" y="233"/>
    </contour>
    <contour>
      <point x="256" y="144" type="line" smooth="yes"/>
      <point x="256" y="96"/>
      <point x="235" y="64"/>
      <point x="192" y="64" type="curve" smooth="yes"/>
      <point x="153" y="64"/>
      <point x="130" y="88"/>
      <point x="130" y="135" type="curve" smooth="yes"/>
      <point x="130" y="193"/>
      <point x="172" y="232"/>
      <point x="256" y="238" type="curve"/>
    </contour>
  </outline>
</glyph>
<glyph name="uni10435" format="2">
  <advance width="549"/>
  <unicode hex="10435"/>
  <note>
uni10435
</note>
  <outline>
    <contour>
      <point x="261" y="546" type="curve" smooth="yes"/>
      <point x="142" y="546"/>
      <point x="64" y="486"/>
      <point x="64" y="398" type="curve" smooth="yes"/>
      <point x="64" y="341"/>
      <point x="100" y="299"/>
      <point x="159" y="279" type="curve"/>
      <point x="89" y="260"/>
      <point x="43" y="218"/>
      <point x="43" y="146" type="curve" smooth="yes"/>
      <point x="43" y="50"/>
      <point x="119" y="-9"/>
      <point x="244" y="-9" type="curve" smooth="yes"/>
      <point x="403" y="-9"/>
      <point x="494" y="94"/>
      <point x="494" y="268" type="curve" smooth="yes"/>
      <point x="494" y="451"/>
      <point x="414" y="546"/>
    </contour>
    <contour>
      <point x="345" y="310" type="line"/>
      <point x="312" y="331"/>
      <point x="290" y="373"/>
      <point x="290" y="419" type="curve" smooth="yes"/>
      <point x="290" y="443"/>
      <point x="293" y="463"/>
      <point x="299" y="479" type="curve"/>
      <point x="359" y="463"/>
      <point x="396" y="404"/>
      <point x="403" y="310" type="curve"/>
    </contour>
    <contour>
      <point x="147" y="398" type="curve" smooth="yes"/>
      <point x="147" y="449"/>
      <point x="182" y="478"/>
      <point x="245" y="480" type="curve"/>
      <point x="238" y="460"/>
      <point x="235" y="438"/>
      <point x="235" y="415" type="curve" smooth="yes"/>
      <point x="235" y="375"/>
      <point x="250" y="336"/>
      <point x="278" y="310" type="curve"/>
      <point x="190" y="310"/>
      <point x="147" y="339"/>
    </contour>
    <contour>
      <point x="248" y="62" type="curve" smooth="yes"/>
      <point x="178" y="62"/>
      <point x="130" y="93"/>
      <point x="130" y="148" type="curve" smooth="yes"/>
      <point x="130" y="211"/>
      <point x="186" y="242"/>
      <point x="298" y="242" type="curve" smooth="yes"/>
      <point x="403" y="242" type="line"/>
      <point x="399" y="125"/>
      <point x="344" y="62"/>
    </contour>
  </outline>
</glyph>
<glyph name="uni10436" format="2">
  <advance width="654"/>
  <unicode hex="10436"/>
  <note>
uni10436
</note>
  <outline>
    <contour>
      <point x="212" y="-10" type="curve" smooth="yes"/>
      <point x="269" y="-10"/>
      <point x="307" y="18"/>
      <point x="327" y="72" type="curve"/>
      <point x="342" y="21"/>
      <point x="382" y="-10"/>
      <point x="441" y="-10" type="curve" smooth="yes"/>
      <point x="544" y="-10"/>
      <point x="596" y="77"/>
      <point x="596" y="251" type="curve" smooth="yes"/>
      <point x="596" y="353"/>
      <point x="581" y="436"/>
      <point x="544" y="536" type="curve"/>
      <point x="453" y="536" type="line"/>
      <point x="496" y="417"/>
      <point x="508" y="340"/>
      <point x="508" y="250" type="curve" smooth="yes"/>
      <point x="508" y="125"/>
      <point x="482" y="63"/>
      <point x="431" y="63" type="curve" smooth="yes"/>
      <point x="391" y="63"/>
      <point x="370" y="105"/>
      <point x="370" y="191" type="curve" smooth="yes"/>
      <point x="370" y="320" type="line"/>
      <point x="286" y="320" type="line"/>
      <point x="286" y="191" type="line" smooth="yes"/>
      <point x="286" y="105"/>
      <point x="265" y="63"/>
      <point x="222" y="63" type="curve" smooth="yes"/>
      <point x="161" y="63"/>
      <point x="146" y="161"/>
      <point x="146" y="250" type="curve" smooth="yes"/>
      <point x="146" y="353"/>
      <point x="171" y="445"/>
      <point x="202" y="536" type="curve"/>
      <point x="112" y="536" type="line"/>
      <point x="74" y="432"/>
      <point x="58" y="349"/>
      <point x="58" y="251" type="curve" smooth="yes"/>
      <point x="58" y="77"/>
      <point x="108" y="-10"/>
    </contour>
  </outline>
</glyph>
<glyph name="uni10437" format="2">
  <advance width="703"/>
  <unicode hex="10437"/>
  <note>
uni10437
</note>
  <outline>
    <contour>
      <point x="636" y="401" type="line"/>
      <point x="600" y="363"/>
      <point x="555" y="335"/>
      <point x="516" y="322" type="curve"/>
      <point x="583" y="536" type="line"/>
      <point x="494" y="536" type="line"/>
      <point x="424" y="304" type="line"/>
      <point x="405" y="303"/>
      <point x="388" y="302"/>
      <point x="372" y="302" type="curve" smooth="yes"/>
      <point x="350" y="302"/>
      <point x="311" y="306"/>
      <point x="305" y="307" type="curve"/>
      <point x="274" y="420" type="line" smooth="yes"/>
      <point x="250" y="507"/>
      <point x="210" y="543"/>
      <point x="140" y="543" type="curve" smooth="yes"/>
      <point x="76" y="543"/>
      <point x="30" y="500"/>
      <point x="30" y="437" type="curve" smooth="yes"/>
      <point x="30" y="351"/>
      <point x="108" y="282"/>
      <point x="237" y="255" type="curve"/>
      <point x="309" y="0" type="line"/>
      <point x="414" y="0" type="line"/>
      <point x="495" y="252" type="line"/>
      <point x="570" y="268"/>
      <point x="639" y="305"/>
      <point x="686" y="354" type="curve"/>
    </contour>
    <contour>
      <point x="143" y="474" type="curve" smooth="yes"/>
      <point x="162" y="474"/>
      <point x="178" y="456"/>
      <point x="189" y="420" type="curve" smooth="yes"/>
      <point x="219" y="323" type="line"/>
      <point x="157" y="340"/>
      <point x="110" y="390"/>
      <point x="110" y="436" type="curve" smooth="yes"/>
      <point x="110" y="463"/>
      <point x="125" y="474"/>
    </contour>
    <contour>
      <point x="363" y="97" type="line"/>
      <point x="322" y="243" type="line"/>
      <point x="335" y="242"/>
      <point x="359" y="241"/>
      <point x="373" y="241" type="curve" smooth="yes"/>
      <point x="388" y="241"/>
      <point x="393" y="241"/>
      <point x="407" y="242" type="curve"/>
    </contour>
  </outline>
</glyph>
<glyph name="uni10438" format="2">
  <advance width="581"/>
  <unicode hex="10438"/>
  <note>
uni10438
</note>
  <outline>
    <contour>
      <point x="541" y="398" type="curve" smooth="yes"/>
      <point x="541" y="490"/>
      <point x="483" y="544"/>
      <point x="392" y="544" type="curve" smooth="yes"/>
      <point x="293" y="544"/>
      <point x="237" y="482"/>
      <point x="237" y="386" type="curve" smooth="yes"/>
      <point x="237" y="302" type="line"/>
      <point x="170" y="311"/>
      <point x="130" y="347"/>
      <point x="130" y="398" type="curve" smooth="yes"/>
      <point x="130" y="438"/>
      <point x="151" y="466"/>
      <point x="193" y="483" type="curve"/>
      <point x="159" y="545" type="line"/>
      <point x="83" y="518"/>
      <point x="40" y="464"/>
      <point x="40" y="394" type="curve" smooth="yes"/>
      <point x="40" y="302"/>
      <point x="117" y="236"/>
      <point x="237" y="228" type="curve"/>
      <point x="237" y="0" type="line"/>
      <point x="325" y="0" type="line"/>
      <point x="325" y="227" type="line"/>
      <point x="456" y="236"/>
      <point x="541" y="303"/>
    </contour>
    <contour>
      <point x="325" y="392" type="line" smooth="yes"/>
      <point x="325" y="440"/>
      <point x="346" y="472"/>
      <point x="389" y="472" type="curve" smooth="yes"/>
      <point x="427" y="472"/>
      <point x="451" y="448"/>
      <point x="451" y="401" type="curve" smooth="yes"/>
      <point x="451" y="342"/>
      <point x="409" y="304"/>
      <point x="325" y="298" type="curve"/>
    </contour>
  </outline>
</glyph>
<glyph name="uni10439" format="2">
  <advance width="436"/>
  <unicode hex="10439"/>
  <note>
uni10439
</note>
  <outline>
    <contour>
      <point x="15" y="536" type="line"/>
      <point x="15" y="462" type="line"/>
      <point x="263" y="462" type="line"/>
      <point x="263" y="0" type="line"/>
      <point x="351" y="0" type="line"/>
      <point x="351" y="536" type="line"/>
    </contour>
  </outline>
</glyph>
<glyph name="uni1043A" format="2">
  <advance width="567"/>
  <unicode hex="1043A"/>
  <note>
uni1043A
</note>
  <outline>
    <contour>
      <point x="494" y="536" type="line"/>
      <point x="406" y="536" type="line"/>
      <point x="406" y="475" type="line"/>
      <point x="370" y="522"/>
      <point x="319" y="546"/>
      <point x="253" y="546" type="curve" smooth="yes"/>
      <point x="141" y="546"/>
      <point x="64" y="487"/>
      <point x="64" y="398" type="curve" smooth="yes"/>
      <point x="64" y="341"/>
      <point x="100" y="299"/>
      <point x="159" y="279" type="curve"/>
      <point x="89" y="260"/>
      <point x="43" y="218"/>
      <point x="43" y="146" type="curve" smooth="yes"/>
      <point x="43" y="52"/>
      <point x="117" y="-9"/>
      <point x="234" y="-9" type="curve" smooth="yes"/>
      <point x="309" y="-9"/>
      <point x="366" y="19"/>
      <point x="406" y="73" type="curve"/>
      <point x="406" y="0" type="line"/>
      <point x="494" y="0" type="line"/>
    </contour>
    <contour>
      <point x="259" y="474" type="curve" smooth="yes"/>
      <point x="354" y="474"/>
      <point x="403" y="408"/>
      <point x="406" y="277" type="curve" smooth="yes"/>
      <point x="406" y="258" type="line" smooth="yes"/>
      <point x="403" y="131"/>
      <point x="350" y="62"/>
      <point x="248" y="62" type="curve" smooth="yes"/>
      <point x="171" y="62"/>
      <point x="130" y="95"/>
      <point x="130" y="148" type="curve" smooth="yes"/>
      <point x="130" y="211"/>
      <point x="186" y="242"/>
      <point x="298" y="242" type="curve" smooth="yes"/>
      <point x="339" y="242" type="line"/>
      <point x="339" y="313" type="line"/>
      <point x="302" y="313" type="line" smooth="yes"/>
      <point x="195" y="313"/>
      <point x="151" y="338"/>
      <point x="151" y="395" type="curve" smooth="yes"/>
      <point x="151" y="444"/>
      <point x="188" y="474"/>
    </contour>
  </outline>
</glyph>
<glyph name="uni1043B" format="2">
  <advance width="517"/>
  <unicode hex="1043B"/>
  <note>
uni1043B
</note>
  <outline>
    <contour>
      <point x="100" y="327" type="line"/>
      <point x="100" y="424"/>
      <point x="139" y="472"/>
      <point x="226" y="472" type="curve" smooth="yes"/>
      <point x="308" y="472"/>
      <point x="345" y="428"/>
      <point x="345" y="331" type="curve" smooth="yes"/>
      <point x="345" y="0" type="line"/>
      <point x="432" y="0" type="line"/>
      <point x="432" y="344" type="line" smooth="yes"/>
      <point x="432" y="478"/>
      <point x="365" y="545"/>
      <point x="230" y="545" type="curve" smooth="yes"/>
      <point x="88" y="545"/>
      <point x="15" y="471"/>
      <point x="15" y="327" type="curve"/>
    </contour>
  </outline>
</glyph>
<glyph name="uni1043C" format="2">
  <advance width="569"/>
  <unicode hex="1043C"/>
  <note>
uni1043C
</note>
  <outline>
    <contour>
      <point x="395" y="0" type="line"/>
      <point x="484" y="0" type="line"/>
      <point x="484" y="536" type="line"/>
      <point x="395" y="536" type="line"/>
      <point x="395" y="466" type="line"/>
      <point x="371" y="517"/>
      <point x="321" y="546"/>
      <point x="264" y="546" type="curve" smooth="yes"/>
      <point x="129" y="546"/>
      <point x="55" y="447"/>
      <point x="55" y="268" type="curve" smooth="yes"/>
      <point x="55" y="94"/>
      <point x="125" y="-9"/>
      <point x="254" y="-9" type="curve" smooth="yes"/>
      <point x="320" y="-9"/>
      <point x="367" y="20"/>
      <point x="395" y="78" type="curve"/>
    </contour>
    <contour>
      <point x="271" y="474" type="curve" smooth="yes"/>
      <point x="344" y="474"/>
      <point x="395" y="425"/>
      <point x="395" y="355" type="curve" smooth="yes"/>
      <point x="395" y="289"/>
      <point x="343" y="235"/>
      <point x="279" y="235" type="curve" smooth="yes"/>
      <point x="208" y="235"/>
      <point x="153" y="285"/>
      <point x="153" y="351" type="curve" smooth="yes"/>
      <point x="153" y="418"/>
      <point x="205" y="474"/>
    </contour>
    <contour>
      <point x="275" y="175" type="curve" smooth="yes"/>
      <point x="324" y="175"/>
      <point x="368" y="198"/>
      <point x="395" y="240" type="curve"/>
      <point x="395" y="161" type="line"/>
      <point x="379" y="104"/>
      <point x="332" y="64"/>
      <point x="272" y="64" type="curve" smooth="yes"/>
      <point x="198" y="64"/>
      <point x="150" y="132"/>
      <point x="146" y="244" type="curve"/>
      <point x="173" y="201"/>
      <point x="223" y="175"/>
    </contour>
  </outline>
</glyph>
<glyph name="uni1043D" format="2">
  <advance width="480"/>
  <unicode hex="1043D"/>
  <note>
uni1043D
</note>
  <outline>
    <contour>
      <point x="300" y="-10" type="curve" smooth="yes"/>
      <point x="355" y="-10"/>
      <point x="401" y="0"/>
      <point x="438" y="19" type="curve"/>
      <point x="438" y="97" type="line"/>
      <point x="393" y="76"/>
      <point x="346" y="66"/>
      <point x="299" y="66" type="curve" smooth="yes"/>
      <point x="198" y="66"/>
      <point x="146" y="137"/>
      <point x="146" y="266" type="curve" smooth="yes"/>
      <point x="146" y="401"/>
      <point x="196" y="469"/>
      <point x="304" y="469" type="curve" smooth="yes"/>
      <point x="336" y="469"/>
      <point x="375" y="461"/>
      <point x="420" y="444" type="curve"/>
      <point x="447" y="517" type="line"/>
      <point x="414" y="534"/>
      <point x="358" y="546"/>
      <point x="306" y="546" type="curve" smooth="yes"/>
      <point x="146" y="546"/>
      <point x="55" y="445"/>
      <point x="55" y="265" type="curve" smooth="yes"/>
      <point x="55" y="88"/>
      <point x="146" y="-10"/>
    </contour>
  </outline>
</glyph>
<glyph name="uni1043E" format="2">
  <advance width="463"/>
  <unicode hex="1043E"/>
  <note>
uni1043E
</note>
  <outline>
    <contour>
      <point x="238" y="178" type="curve" smooth="yes"/>
      <point x="260" y="178"/>
      <point x="280" y="180"/>
      <point x="297" y="184" type="curve"/>
      <point x="173" y="0" type="line"/>
      <point x="275" y="0" type="line"/>
      <point x="418" y="233" type="line"/>
      <point x="361" y="279" type="line"/>
      <point x="339" y="261"/>
      <point x="294" y="249"/>
      <point x="256" y="249" type="curve" smooth="yes"/>
      <point x="181" y="249"/>
      <point x="137" y="288"/>
      <point x="137" y="356" type="curve" smooth="yes"/>
      <point x="137" y="430"/>
      <point x="187" y="472"/>
      <point x="267" y="472" type="curve" smooth="yes"/>
      <point x="307" y="472"/>
      <point x="347" y="460"/>
      <point x="386" y="436" type="curve"/>
      <point x="425" y="501" type="line"/>
      <point x="385" y="528"/>
      <point x="327" y="544"/>
      <point x="271" y="544" type="curve" smooth="yes"/>
      <point x="136" y="544"/>
      <point x="47" y="469"/>
      <point x="47" y="354" type="curve" smooth="yes"/>
      <point x="47" y="243"/>
      <point x="121" y="178"/>
    </contour>
  </outline>
</glyph>
<glyph name="uni1043F" format="2">
  <advance width="654"/>
  <unicode hex="1043F"/>
  <note>
uni1043F
</note>
  <outline>
    <contour>
      <point x="146" y="250" type="curve" smooth="yes"/>
      <point x="146" y="394"/>
      <point x="208" y="471"/>
      <point x="327" y="471" type="curve" smooth="yes"/>
      <point x="446" y="471"/>
      <point x="508" y="395"/>
      <point x="508" y="250" type="curve" smooth="yes"/>
      <point x="508" y="125"/>
      <point x="482" y="63"/>
      <point x="431" y="63" type="curve" smooth="yes"/>
      <point x="391" y="63"/>
      <point x="370" y="105"/>
      <point x="370" y="191" type="curve" smooth="yes"/>
      <point x="370" y="320" type="line"/>
      <point x="286" y="320" type="line"/>
      <point x="286" y="191" type="line" smooth="yes"/>
      <point x="286" y="105"/>
      <point x="265" y="63"/>
      <point x="222" y="63" type="curve" smooth="yes"/>
      <point x="161" y="63"/>
      <point x="146" y="161"/>
    </contour>
    <contour>
      <point x="58" y="251" type="curve" smooth="yes"/>
      <point x="58" y="77"/>
      <point x="108" y="-10"/>
      <point x="212" y="-10" type="curve" smooth="yes"/>
      <point x="269" y="-10"/>
      <point x="307" y="18"/>
      <point x="327" y="72" type="curve"/>
      <point x="342" y="21"/>
      <point x="382" y="-10"/>
      <point x="441" y="-10" type="curve" smooth="yes"/>
      <point x="544" y="-10"/>
      <point x="596" y="77"/>
      <point x="596" y="251" type="curve" smooth="yes"/>
      <point x="596" y="433"/>
      <point x="495" y="544"/>
      <point x="328" y="544" type="curve" smooth="yes"/>
      <point x="157" y="544"/>
      <point x="58" y="425"/>
    </contour>
  </outline>
</glyph>
<glyph name="uni10440" format="2">
  <advance width="654"/>
  <unicode hex="10440"/>
  <note>
uni10440
</note>
  <outline>
    <contour>
      <point x="58" y="251" type="curve" smooth="yes"/>
      <point x="58" y="77"/>
      <point x="108" y="-10"/>
      <point x="212" y="-10" type="curve" smooth="yes"/>
      <point x="269" y="-10"/>
      <point x="307" y="18"/>
      <point x="327" y="72" type="curve"/>
      <point x="342" y="21"/>
      <point x="382" y="-10"/>
      <point x="441" y="-10" type="curve" smooth="yes"/>
      <point x="544" y="-10"/>
      <point x="596" y="77"/>
      <point x="596" y="251" type="curve" smooth="yes"/>
      <point x="596" y="433"/>
      <point x="495" y="544"/>
      <point x="328" y="544" type="curve" smooth="yes"/>
      <point x="157" y="544"/>
      <point x="58" y="425"/>
    </contour>
    <contour>
      <point x="146" y="250" type="curve" smooth="yes"/>
      <point x="146" y="373"/>
      <point x="189" y="445"/>
      <point x="277" y="466" type="curve"/>
      <point x="273" y="450"/>
      <point x="272" y="432"/>
      <point x="272" y="413" type="curve" smooth="yes"/>
      <point x="272" y="304"/>
      <point x="334" y="250"/>
      <point x="442" y="250" type="curve" smooth="yes"/>
      <point x="467" y="250"/>
      <point x="489" y="252"/>
      <point x="508" y="256" type="curve"/>
      <point x="508" y="127"/>
      <point x="482" y="63"/>
      <point x="431" y="63" type="curve" smooth="yes"/>
      <point x="391" y="63"/>
      <point x="370" y="105"/>
      <point x="370" y="191" type="curve" smooth="yes"/>
      <point x="370" y="223" type="line"/>
      <point x="286" y="223" type="line"/>
      <point x="286" y="191" type="line" smooth="yes"/>
      <point x="286" y="105"/>
      <point x="265" y="63"/>
      <point x="222" y="63" type="curve" smooth="yes"/>
      <point x="161" y="63"/>
      <point x="146" y="161"/>
    </contour>
    <contour>
      <point x="334" y="471" type="curve"/>
      <point x="432" y="468"/>
      <point x="489" y="413"/>
      <point x="505" y="306" type="curve"/>
      <point x="494" y="304"/>
      <point x="472" y="301"/>
      <point x="452" y="301" type="curve" smooth="yes"/>
      <point x="364" y="301"/>
      <point x="330" y="335"/>
      <point x="330" y="427" type="curve" smooth="yes"/>
      <point x="330" y="442"/>
      <point x="332" y="457"/>
    </contour>
  </outline>
</glyph>
<glyph name="uni10441" format="2">
  <advance width="526"/>
  <unicode hex="10441"/>
  <note>
uni10441
</note>
  <outline>
    <contour>
      <point x="472" y="374" type="curve" smooth="yes"/>
      <point x="472" y="479"/>
      <point x="400" y="544"/>
      <point x="285" y="544" type="curve" smooth="yes"/>
      <point x="156" y="544"/>
      <point x="81" y="479"/>
      <point x="81" y="350" type="curve" smooth="yes"/>
      <point x="81" y="0" type="line"/>
      <point x="169" y="0" type="line"/>
      <point x="169" y="202" type="line"/>
      <point x="233" y="202" type="line" smooth="yes"/>
      <point x="388" y="202"/>
      <point x="472" y="263"/>
    </contour>
    <contour>
      <point x="169" y="344" type="line" smooth="yes"/>
      <point x="169" y="430"/>
      <point x="206" y="472"/>
      <point x="280" y="472" type="curve" smooth="yes"/>
      <point x="344" y="472"/>
      <point x="382" y="435"/>
      <point x="382" y="378" type="curve" smooth="yes"/>
      <point x="382" y="304"/>
      <point x="335" y="274"/>
      <point x="220" y="274" type="curve" smooth="yes"/>
      <point x="169" y="274" type="line"/>
    </contour>
  </outline>
</glyph>
<glyph name="uni10442" format="2">
  <advance width="486"/>
  <unicode hex="10442"/>
  <note>
uni10442
</note>
  <outline>
    <contour>
      <point x="421" y="406" type="curve" smooth="yes"/>
      <point x="421" y="491"/>
      <point x="357" y="543"/>
      <point x="224" y="543" type="curve" smooth="yes"/>
      <point x="160" y="543"/>
      <point x="99" y="527"/>
      <point x="40" y="495" type="curve"/>
      <point x="78" y="433" type="line"/>
      <point x="123" y="460"/>
      <point x="168" y="473"/>
      <point x="216" y="473" type="curve" smooth="yes"/>
      <point x="293" y="473"/>
      <point x="329" y="443"/>
      <point x="329" y="394" type="curve" smooth="yes"/>
      <point x="329" y="340"/>
      <point x="283" y="312"/>
      <point x="172" y="312" type="curve" smooth="yes"/>
      <point x="130" y="312" type="line"/>
      <point x="130" y="242" type="line"/>
      <point x="194" y="242" type="line" smooth="yes"/>
      <point x="300" y="242"/>
      <point x="350" y="213"/>
      <point x="350" y="149" type="curve" smooth="yes"/>
      <point x="350" y="96"/>
      <point x="301" y="62"/>
      <point x="213" y="62" type="curve" smooth="yes"/>
      <point x="161" y="62"/>
      <point x="105" y="73"/>
      <point x="45" y="96" type="curve"/>
      <point x="45" y="24" type="line"/>
      <point x="92" y="3"/>
      <point x="150" y="-8"/>
      <point x="217" y="-8" type="curve" smooth="yes"/>
      <point x="354" y="-8"/>
      <point x="443" y="58"/>
      <point x="443" y="154" type="curve" smooth="yes"/>
      <point x="443" y="219"/>
      <point x="403" y="261"/>
      <point x="324" y="281" type="curve"/>
      <point x="389" y="304"/>
      <point x="421" y="348"/>
    </contour>
  </outline>
</glyph>
<glyph name="uni10443" format="2">
  <advance width="436"/>
  <unicode hex="10443"/>
  <note>
uni10443
</note>
  <outline>
    <contour>
      <point x="421" y="0" type="line"/>
      <point x="421" y="74" type="line"/>
      <point x="173" y="74" type="line"/>
      <point x="173" y="536" type="line"/>
      <point x="85" y="536" type="line"/>
      <point x="85" y="0" type="line"/>
    </contour>
  </outline>
</glyph>
<glyph name="uni10444" format="2">
  <advance width="474"/>
  <unicode hex="10444"/>
  <note>
uni10444
</note>
  <outline>
    <contour>
      <point x="486" y="536" type="line"/>
      <point x="387" y="536" type="line"/>
      <point x="239" y="334" type="line"/>
      <point x="88" y="536" type="line"/>
      <point x="-12" y="536" type="line"/>
      <point x="190" y="272" type="line"/>
      <point x="146" y="211"/>
      <point x="112" y="165"/>
      <point x="112" y="106" type="curve" smooth="yes"/>
      <point x="112" y="30"/>
      <point x="162" y="-11"/>
      <point x="240" y="-11" type="curve" smooth="yes"/>
      <point x="317" y="-11"/>
      <point x="370" y="37"/>
      <point x="370" y="109" type="curve" smooth="yes"/>
      <point x="370" y="163"/>
      <point x="336" y="213"/>
      <point x="291" y="273" type="curve"/>
    </contour>
    <contour>
      <point x="291" y="108" type="curve" smooth="yes"/>
      <point x="291" y="80"/>
      <point x="274" y="57"/>
      <point x="239" y="57" type="curve" smooth="yes"/>
      <point x="208" y="57"/>
      <point x="190" y="77"/>
      <point x="190" y="106" type="curve" smooth="yes"/>
      <point x="190" y="135"/>
      <point x="207" y="175"/>
      <point x="238" y="214" type="curve"/>
      <point x="269" y="177"/>
      <point x="291" y="137"/>
    </contour>
  </outline>
</glyph>
<glyph name="uni10445" format="2">
  <advance width="560"/>
  <unicode hex="10445"/>
  <note>
uni10445
</note>
  <outline>
    <contour>
      <point x="284" y="543" type="curve" smooth="yes"/>
      <point x="175" y="543"/>
      <point x="105" y="494"/>
      <point x="105" y="420" type="curve" smooth="yes"/>
      <point x="105" y="392"/>
      <point x="118" y="365"/>
      <point x="144" y="340" type="curve"/>
      <point x="115" y="344"/>
      <point x="59" y="367"/>
      <point x="35" y="381" type="curve"/>
      <point x="8" y="325" type="line"/>
      <point x="59" y="295"/>
      <point x="127" y="280"/>
      <point x="213" y="279" type="curve"/>
      <point x="245" y="258" type="line"/>
      <point x="140" y="238"/>
      <point x="82" y="188"/>
      <point x="82" y="119" type="curve" smooth="yes"/>
      <point x="82" y="40"/>
      <point x="151" y="-8"/>
      <point x="272" y="-8" type="curve" smooth="yes"/>
      <point x="374" y="-8"/>
      <point x="468" y="34"/>
      <point x="468" y="118" type="curve" smooth="yes"/>
      <point x="468" y="158"/>
      <point x="449" y="190"/>
      <point x="412" y="215" type="curve"/>
      <point x="447" y="209"/>
      <point x="502" y="188"/>
      <point x="527" y="174" type="curve"/>
      <point x="556" y="232" type="line"/>
      <point x="509" y="255"/>
      <point x="436" y="269"/>
      <point x="337" y="273" type="curve"/>
      <point x="304" y="293" type="line"/>
      <point x="407" y="316"/>
      <point x="458" y="358"/>
      <point x="458" y="419" type="curve" smooth="yes"/>
      <point x="458" y="495"/>
      <point x="386" y="543"/>
    </contour>
    <contour>
      <point x="167" y="127" type="curve" smooth="yes"/>
      <point x="167" y="179"/>
      <point x="216" y="208"/>
      <point x="313" y="215" type="curve"/>
      <point x="357" y="193"/>
      <point x="387" y="159"/>
      <point x="387" y="128" type="curve" smooth="yes"/>
      <point x="387" y="82"/>
      <point x="347" y="57"/>
      <point x="277" y="57" type="curve" smooth="yes"/>
      <point x="209" y="57"/>
      <point x="167" y="84"/>
    </contour>
    <contour>
      <point x="280" y="479" type="curve" smooth="yes"/>
      <point x="336" y="479"/>
      <point x="372" y="456"/>
      <point x="372" y="417" type="curve" smooth="yes"/>
      <point x="372" y="373"/>
      <point x="328" y="346"/>
      <point x="240" y="337" type="curve"/>
      <point x="198" y="363"/>
      <point x="185" y="388"/>
      <point x="185" y="417" type="curve" smooth="yes"/>
      <point x="185" y="456"/>
      <point x="222" y="479"/>
    </contour>
  </outline>
</glyph>
<glyph name="uni10446" format="2">
  <advance width="533"/>
  <unicode hex="10446"/>
  <note>
uni10446
</note>
  <outline>
    <contour>
      <point x="293" y="366" type="curve" smooth="yes"/>
      <point x="234" y="366"/>
      <point x="180" y="343"/>
      <point x="149" y="301" type="curve"/>
      <point x="154" y="410"/>
      <point x="214" y="472"/>
      <point x="303" y="472" type="curve" smooth="yes"/>
      <point x="349" y="472"/>
      <point x="394" y="461"/>
      <point x="439" y="439" type="curve"/>
      <point x="463" y="508" type="line"/>
      <point x="413" y="533"/>
      <point x="359" y="546"/>
      <point x="302" y="546" type="curve" smooth="yes"/>
      <point x="149" y="546"/>
      <point x="55" y="438"/>
      <point x="55" y="268" type="curve" smooth="yes"/>
      <point x="55" y="90"/>
      <point x="137" y="-10"/>
      <point x="280" y="-10" type="curve" smooth="yes"/>
      <point x="395" y="-10"/>
      <point x="489" y="73"/>
      <point x="489" y="186" type="curve" smooth="yes"/>
      <point x="489" y="297"/>
      <point x="411" y="366"/>
    </contour>
    <contour>
      <point x="279" y="63" type="curve" smooth="yes"/>
      <point x="207" y="63"/>
      <point x="156" y="118"/>
      <point x="156" y="192" type="curve" smooth="yes"/>
      <point x="156" y="250"/>
      <point x="210" y="295"/>
      <point x="283" y="295" type="curve" smooth="yes"/>
      <point x="354" y="295"/>
      <point x="398" y="252"/>
      <point x="398" y="181" type="curve" smooth="yes"/>
      <point x="398" y="112"/>
      <point x="348" y="63"/>
    </contour>
  </outline>
</glyph>
<glyph name="uni10447" format="2">
  <advance width="569"/>
  <unicode hex="10447"/>
  <note>
uni10447
</note>
  <outline>
    <contour>
      <point x="174" y="536" type="line"/>
      <point x="85" y="536" type="line"/>
      <point x="85" y="0" type="line"/>
      <point x="174" y="0" type="line"/>
      <point x="174" y="69" type="line"/>
      <point x="202" y="17"/>
      <point x="245" y="-10"/>
      <point x="305" y="-10" type="curve" smooth="yes"/>
      <point x="448" y="-10"/>
      <point x="514" y="104"/>
      <point x="514" y="268" type="curve" smooth="yes"/>
      <point x="514" y="443"/>
      <point x="442" y="545"/>
      <point x="315" y="545" type="curve" smooth="yes"/>
      <point x="249" y="545"/>
      <point x="199" y="513"/>
      <point x="174" y="460" type="curve"/>
    </contour>
    <contour>
      <point x="174" y="369" type="line"/>
      <point x="191" y="435"/>
      <point x="236" y="472"/>
      <point x="297" y="472" type="curve" smooth="yes"/>
      <point x="385" y="472"/>
      <point x="423" y="380"/>
      <point x="423" y="268" type="curve" smooth="yes"/>
      <point x="423" y="135"/>
      <point x="379" y="63"/>
      <point x="293" y="63" type="curve" smooth="yes"/>
      <point x="236" y="63"/>
      <point x="188" y="102"/>
      <point x="174" y="160" type="curve"/>
    </contour>
  </outline>
</glyph>
<glyph name="uni10448" format="2">
  <advance width="479"/>
  <unicode hex="10448"/>
  <note>
uni10448
</note>
  <outline>
    <contour>
      <point x="434" y="148" type="curve" smooth="yes"/>
      <point x="434" y="239"/>
      <point x="371" y="268"/>
      <point x="273" y="307" type="curve" smooth="yes"/>
      <point x="191" y="340"/>
      <point x="135" y="358"/>
      <point x="135" y="409" type="curve" smooth="yes"/>
      <point x="135" y="450"/>
      <point x="173" y="474"/>
      <point x="246" y="474" type="curve" smooth="yes"/>
      <point x="290" y="474"/>
      <point x="339" y="463"/>
      <point x="393" y="440" type="curve"/>
      <point x="423" y="510" type="line"/>
      <point x="370" y="534"/>
      <point x="313" y="546"/>
      <point x="252" y="546" type="curve" smooth="yes"/>
      <point x="127" y="546"/>
      <point x="51" y="492"/>
      <point x="51" y="404" type="curve" smooth="yes"/>
      <point x="51" y="314"/>
      <point x="109" y="286"/>
      <point x="217" y="244" type="curve" smooth="yes"/>
      <point x="291" y="215"/>
      <point x="349" y="191"/>
      <point x="349" y="140" type="curve" smooth="yes"/>
      <point x="349" y="92"/>
      <point x="311" y="61"/>
      <point x="222" y="61" type="curve" smooth="yes"/>
      <point x="167" y="61"/>
      <point x="111" y="75"/>
      <point x="52" y="104" type="curve"/>
      <point x="52" y="24" type="line"/>
      <point x="93" y="1"/>
      <point x="149" y="-10"/>
      <point x="220" y="-10" type="curve" smooth="yes"/>
      <point x="355" y="-10"/>
      <point x="434" y="48"/>
    </contour>
  </outline>
</glyph>
<glyph name="uni10449" format="2">
  <advance width="581"/>
  <unicode hex="10449"/>
  <note>
uni10449
</note>
  <outline>
    <contour>
      <point x="40" y="294" type="curve" smooth="yes"/>
      <point x="40" y="194"/>
      <point x="122" y="129"/>
      <point x="256" y="122" type="curve"/>
      <point x="256" y="0" type="line"/>
      <point x="344" y="0" type="line"/>
      <point x="344" y="122" type="line"/>
      <point x="469" y="136"/>
      <point x="541" y="196"/>
      <point x="541" y="288" type="curve" smooth="yes"/>
      <point x="541" y="360"/>
      <point x="500" y="410"/>
      <point x="422" y="431" type="curve"/>
      <point x="393" y="364" type="line"/>
      <point x="436" y="353"/>
      <point x="454" y="325"/>
      <point x="454" y="290" type="curve" smooth="yes"/>
      <point x="454" y="242"/>
      <point x="413" y="205"/>
      <point x="344" y="195" type="curve"/>
      <point x="344" y="536" type="line"/>
      <point x="256" y="536" type="line"/>
      <point x="256" y="369" type="line"/>
      <point x="242" y="408"/>
      <point x="205" y="427"/>
      <point x="166" y="427" type="curve" smooth="yes"/>
      <point x="90" y="427"/>
      <point x="40" y="376"/>
    </contour>
    <contour>
      <point x="256" y="192" type="line"/>
      <point x="172" y="199"/>
      <point x="130" y="234"/>
      <point x="130" y="296" type="curve" smooth="yes"/>
      <point x="130" y="331"/>
      <point x="147" y="356"/>
      <point x="184" y="356" type="curve" smooth="yes"/>
      <point x="232" y="356"/>
      <point x="256" y="300"/>
      <point x="256" y="237" type="curve" smooth="yes"/>
    </contour>
  </outline>
</glyph>
<glyph name="uni1044A" format="2">
  <advance width="517"/>
  <unicode hex="1044A"/>
  <note>
uni1044A
</note>
  <outline>
    <contour>
      <point x="417" y="209" type="line"/>
      <point x="417" y="111"/>
      <point x="378" y="64"/>
      <point x="291" y="64" type="curve" smooth="yes"/>
      <point x="209" y="64"/>
      <point x="172" y="108"/>
      <point x="172" y="205" type="curve" smooth="yes"/>
      <point x="172" y="536" type="line"/>
      <point x="85" y="536" type="line"/>
      <point x="85" y="192" type="line" smooth="yes"/>
      <point x="85" y="58"/>
      <point x="152" y="-9"/>
      <point x="287" y="-9" type="curve" smooth="yes"/>
      <point x="429" y="-9"/>
      <point x="502" y="65"/>
      <point x="502" y="209" type="curve"/>
    </contour>
  </outline>
</glyph>
<glyph name="uni1044B" format="2">
  <advance width="480"/>
  <unicode hex="1044B"/>
  <note>
uni1044B
</note>
  <outline>
    <contour>
      <point x="171" y="-10" type="curve" smooth="yes"/>
      <point x="331" y="-10"/>
      <point x="425" y="94"/>
      <point x="425" y="272" type="curve" smooth="yes"/>
      <point x="425" y="452"/>
      <point x="345" y="546"/>
      <point x="183" y="546" type="curve" smooth="yes"/>
      <point x="126" y="546"/>
      <point x="68" y="535"/>
      <point x="33" y="517" type="curve"/>
      <point x="53" y="443" type="line"/>
      <point x="88" y="460"/>
      <point x="127" y="469"/>
      <point x="173" y="469" type="curve" smooth="yes"/>
      <point x="280" y="469"/>
      <point x="334" y="400"/>
      <point x="334" y="262" type="curve" smooth="yes"/>
      <point x="334" y="137"/>
      <point x="279" y="66"/>
      <point x="178" y="66" type="curve" smooth="yes"/>
      <point x="120" y="66"/>
      <point x="78" y="81"/>
      <point x="39" y="100" type="curve"/>
      <point x="39" y="22" type="line"/>
      <point x="84" y="-2"/>
      <point x="120" y="-10"/>
    </contour>
  </outline>
</glyph>
<glyph name="uni1044C" format="2">
  <advance width="534"/>
  <unicode hex="1044C"/>
  <note>
uni1044C
</note>
  <outline>
    <contour>
      <point x="374" y="302" type="line"/>
      <point x="374" y="0" type="line"/>
      <point x="464" y="0" type="line"/>
      <point x="464" y="401" type="line"/>
      <point x="379" y="401" type="line"/>
      <point x="160" y="254" type="line"/>
      <point x="160" y="536" type="line"/>
      <point x="70" y="536" type="line"/>
      <point x="70" y="158" type="line"/>
      <point x="154" y="158" type="line"/>
    </contour>
  </outline>
</glyph>
<glyph name="uni1044D" format="2">
  <advance width="593"/>
  <unicode hex="1044D"/>
  <note>
uni1044D
</note>
  <outline>
    <contour>
      <point x="85" y="0" type="line"/>
      <point x="177" y="0" type="line"/>
      <point x="432" y="419" type="line"/>
      <point x="429" y="375"/>
      <point x="427" y="333"/>
      <point x="427" y="294" type="curve" smooth="yes"/>
      <point x="427" y="0" type="line"/>
      <point x="508" y="0" type="line"/>
      <point x="508" y="536" type="line"/>
      <point x="416" y="536" type="line"/>
      <point x="165" y="122" type="line"/>
      <point x="166" y="161"/>
      <point x="168" y="200"/>
      <point x="168" y="239" type="curve" smooth="yes"/>
      <point x="168" y="536" type="line"/>
      <point x="85" y="536" type="line"/>
    </contour>
  </outline>
</glyph>
<glyph name="uni1044E" format="2">
  <advance width="670"/>
  <unicode hex="1044E"/>
  <note>
uni1044E
</note>
  <outline>
    <contour>
      <point x="532" y="536" type="line"/>
      <point x="444" y="536" type="line"/>
      <point x="444" y="417" type="line"/>
      <point x="353" y="464" type="line"/>
      <point x="311" y="396" type="line"/>
      <point x="444" y="327" type="line"/>
      <point x="444" y="116" type="line"/>
      <point x="345" y="217" type="line"/>
      <point x="290" y="217" type="line"/>
      <point x="205" y="89" type="line"/>
      <point x="71" y="225" type="line"/>
      <point x="10" y="168" type="line"/>
      <point x="178" y="0" type="line"/>
      <point x="240" y="0" type="line"/>
      <point x="322" y="127" type="line"/>
      <point x="451" y="0" type="line"/>
      <point x="532" y="0" type="line"/>
      <point x="532" y="282" type="line"/>
      <point x="614" y="240" type="line"/>
      <point x="655" y="309" type="line"/>
      <point x="532" y="372" type="line"/>
    </contour>
  </outline>
</glyph>
<glyph name="uni1044F" format="2">
  <advance width="605"/>
  <unicode hex="1044F"/>
  <note>
uni1044F
</note>
  <outline>
    <contour>
      <point x="551" y="269" type="curve" smooth="yes"/>
      <point x="551" y="439"/>
      <point x="455" y="546"/>
      <point x="304" y="546" type="curve" smooth="yes"/>
      <point x="146" y="546"/>
      <point x="55" y="443"/>
      <point x="55" y="269" type="curve" smooth="yes"/>
      <point x="55" y="106"/>
      <point x="146" y="-10"/>
      <point x="301" y="-10" type="curve" smooth="yes"/>
      <point x="457" y="-10"/>
      <point x="551" y="94"/>
    </contour>
    <contour>
      <point x="460" y="269" type="curve" smooth="yes"/>
      <point x="460" y="152"/>
      <point x="418" y="77"/>
      <point x="330" y="65" type="curve"/>
      <point x="330" y="198" type="line"/>
      <point x="391" y="152" type="line"/>
      <point x="414" y="227" type="line"/>
      <point x="330" y="290" type="line"/>
      <point x="330" y="470" type="line"/>
      <point x="415" y="458"/>
      <point x="460" y="389"/>
    </contour>
    <contour>
      <point x="146" y="269" type="curve" smooth="yes"/>
      <point x="146" y="392"/>
      <point x="190" y="459"/>
      <point x="276" y="470" type="curve"/>
      <point x="276" y="331" type="line"/>
      <point x="211" y="380" type="line"/>
      <point x="188" y="305" type="line"/>
      <point x="276" y="238" type="line"/>
      <point x="276" y="65" type="line"/>
      <point x="191" y="76"/>
      <point x="146" y="146"/>
    </contour>
  </outline>
</glyph>
